# Blender v2.78 (sub 0) OBJ File: 'planet.blend'
# www.blender.org
o Icosphere
v 0.000000 -1.000000 0.000000
v 0.723600 -0.447215 0.525720
v -0.276385 -0.447215 0.850640
v -0.894425 -0.447215 0.000000
v -0.276385 -0.447215 -0.850640
v 0.781981 -0.300619 -0.449428
v 0.194116 0.316977 0.879138
v -0.723600 0.447215 0.525720
v -0.677038 0.452587 -0.548988
v 0.276385 0.447215 -0.850640
v 0.840304 0.459332 0.104196
v 0.000000 1.000000 0.000000
v -0.207926 -0.739750 0.639944
v -0.111468 -0.932671 0.343071
v 0.291834 -0.932671 0.212027
v 0.544370 -0.739750 0.395503
v 0.432901 -0.516805 0.738574
v 0.083907 -0.516804 0.851970
v 0.837793 -0.335112 -0.279790
v 0.836201 -0.516804 0.183475
v 0.291834 -0.932671 -0.212027
v 0.544370 -0.739750 -0.395503
v -0.672883 -0.739751 0.000000
v -0.360729 -0.932672 0.000000
v -0.568657 -0.516807 0.639945
v -0.784352 -0.516807 0.343073
v -0.207926 -0.739750 -0.639944
v -0.111468 -0.932671 -0.343071
v -0.784352 -0.516807 -0.343073
v -0.568657 -0.516807 -0.639945
v 0.083908 -0.516804 -0.851970
v 0.432901 -0.516805 -0.738574
v 0.886565 0.267714 0.243745
v 0.905093 -0.156078 0.395502
v 0.901492 -0.001590 -0.293942
v 0.218783 0.166748 0.926598
v -0.007586 -0.009393 0.950746
v 0.655837 -0.156077 0.738572
v 0.314957 0.159476 0.879857
v -0.905093 0.156078 0.395502
v -0.851795 -0.363939 0.279040
v -0.499759 -0.156076 0.851970
v -0.655837 0.156077 0.738572
v -0.619545 0.205569 -0.729584
v -0.499759 -0.156076 -0.851970
v -0.964713 -0.156076 -0.212027
v -0.905093 0.156078 -0.395502
v 0.499759 0.156076 -0.851970
v 0.748394 -0.156313 -0.554931
v -0.096458 -0.156077 -0.983006
v 0.096458 0.156077 -0.983006
v 0.794236 0.467585 0.187396
v 0.625894 0.505135 0.525386
v -0.000796 0.354624 0.879857
v -0.432901 0.516805 0.738574
v -0.836201 0.516804 0.183475
v -0.836201 0.516804 -0.183475
v -0.134287 0.511630 -0.825797
v 0.568657 0.516807 -0.639945
v 0.784352 0.516807 -0.343073
v 0.111468 0.932671 0.343071
v 0.207926 0.739750 0.639944
v 0.694492 0.651870 0.104196
v 0.360729 0.932672 0.000000
v -0.291834 0.932671 0.212027
v -0.544370 0.739750 0.395503
v -0.291834 0.932671 -0.212027
v -0.524970 0.700790 -0.438505
v 0.111468 0.932671 -0.343071
v 0.207926 0.739750 -0.639944
v 0.481339 0.805984 -0.349713
v -0.219090 0.756985 -0.583032
v -0.594966 0.805980 0.000000
v -0.183858 0.805982 0.565844
v 0.568424 0.695462 0.334365
v 0.821390 0.018198 -0.469316
v -0.309128 0.239440 -0.899341
v -0.982322 0.195999 -0.014275
v -0.126966 0.181073 0.921977
v 0.769156 0.293990 0.491818
v 0.304988 -0.171711 -0.938649
v -0.798469 -0.171711 -0.580120
v -0.798469 -0.171711 0.580120
v 0.209589 -0.017851 0.926749
v 0.912519 -0.164062 -0.188848
v 0.203507 -0.790971 -0.580121
v -0.488845 -0.790973 -0.372813
v -0.505627 -0.790973 0.349714
v 0.614616 -0.790970 -0.014276
v 0.176353 -0.790971 0.588944
v -0.530983 0.686504 -0.548053
v -0.647134 0.496926 -0.632441
v -0.603220 0.308253 -0.770380
v 0.274152 0.172345 0.956995
v -0.232579 0.542024 -0.843868
v -0.297353 0.729426 -0.658443
v -0.366124 0.334125 -0.900041
v -0.480633 0.611010 -0.540241
v -0.569379 0.466159 -0.604719
v -0.535826 0.322000 -0.710114
v -0.425438 0.500617 -0.710115
v -0.252631 0.500617 -0.766264
v -0.302122 0.643805 -0.624587
v -0.354668 0.341768 -0.809184
v 0.179863 0.295240 0.956434
v 0.022479 0.040580 1.012308
v 0.027777 0.324615 0.956995
v -0.070670 0.189197 0.989860
v 0.191936 0.033981 0.993584
v 0.153077 0.252386 0.926207
v 0.100152 0.166748 0.965142
v 0.043406 0.074929 0.965142
v 0.047098 0.272855 0.926598
v -0.021504 0.178491 0.949500
v 0.161491 0.070330 0.952095
v 0.879938 0.503617 0.169508
v 0.917035 0.349957 0.281413
v -0.879281 -0.459007 0.328020
v 0.708000 0.540347 0.507265
v 0.763010 0.658015 0.169508
v 0.661915 0.692972 0.354083
v 0.822884 0.371028 0.480346
v 0.821083 0.356382 0.268382
v 0.752193 0.494167 0.318436
v 0.669805 0.494167 0.431830
v 0.709616 0.579322 0.187396
v 0.636453 0.604621 0.320973
v 0.752946 0.371631 0.412349
v -0.967960 -0.402940 0.051626
v 0.809188 -0.164499 -0.543197
v -0.976555 0.083099 0.370260
v -1.024587 -0.168385 -0.119192
v -1.038774 0.115261 0.040125
v -0.890654 -0.180982 0.518996
v -0.914247 -0.324454 0.084390
v -0.954127 -0.159269 0.204688
v -0.920300 0.017838 0.308787
v -0.954127 -0.159269 -0.035908
v -0.964118 0.040488 0.076291
v -0.859804 -0.168141 0.413535
v 0.836894 -0.283535 -0.456169
v 0.882933 -0.311987 -0.316237
v 0.935477 -0.036870 -0.327911
v 0.869402 -0.020547 -0.472574
v 0.944572 -0.170891 -0.241220
v 0.805126 -0.160025 -0.490737
v 0.825125 -0.245946 -0.427919
v 0.858356 -0.266483 -0.326915
v 0.878688 -0.160025 -0.389489
v 0.896283 -0.067901 -0.335341
v 0.848589 -0.056119 -0.439761
v 0.902848 -0.164639 -0.272767
vt 0.2336 0.1366
vt 0.2497 0.1863
vt 0.1918 0.1742
vt 0.2765 0.2677
vt 0.2635 0.2289
vt 0.3089 0.2437
vt 0.1778 0.1013
vt 0.2586 0.0756
vt 0.2894 0.1428
vt 0.3094 0.2910
vt 0.1391 0.2713
vt 0.1909 0.2693
vt 0.1772 0.3413
vt 0.6647 0.6118
vt 0.6508 0.5415
vt 0.6709 0.5315
vt 0.5924 0.2265
vt 0.6299 0.1740
vt 0.6514 0.2410
vt 0.3929 0.2138
vt 0.4056 0.1290
vt 0.4228 0.2189
vt 0.2648 0.3063
vt 0.0912 0.3148
vt 0.5983 0.4925
vt 0.5479 0.5376
vt 0.5281 0.5267
vt 0.6019 0.2890
vt 0.3552 0.5257
vt 0.3303 0.5470
vt 0.3196 0.5398
vt 0.2198 0.3841
vt 0.3073 0.3866
vt 0.2614 0.4549
vt 0.9376 0.2601
vt 0.9912 0.3101
vt 0.9100 0.3208
vt 0.7511 0.2805
vt 0.8106 0.2632
vt 0.7747 0.3200
vt 0.6509 0.4028
vt 0.6932 0.3507
vt 0.7107 0.4203
vt 0.3724 0.3556
vt 0.4473 0.3428
vt 0.3799 0.3952
vt 0.8191 0.4922
vt 0.7720 0.4270
vt 0.8347 0.4228
vt 0.4897 0.4270
vt 0.4095 0.4875
vt 0.7367 0.4922
vt 0.5278 0.3237
vt 0.6508 0.4735
vt 0.8080 0.3693
vt 0.7457 0.3617
vt 0.1213 0.5514
vt 0.1045 0.6116
vt 0.1016 0.5631
vt 0.0607 0.6552
vt 0.0199 0.6133
vt 0.0608 0.6339
vt 0.0608 0.5257
vt 0.0198 0.5632
vt 0.0002 0.5512
vt 0.8764 0.3750
vt 0.8431 0.3204
vt 0.8714 0.2577
vt 0.8992 0.4528
vt 0.9500 0.3879
vt 0.2018 0.5250
vt 0.3063 0.5254
vt 0.1118 0.4671
vt 0.1907 0.4007
vt 0.3394 0.4192
vt 0.2364 0.5802
vt 0.2013 0.6119
vt 0.2163 0.5796
vt 0.1250 0.5760
vt 0.1618 0.6129
vt 0.1514 0.6308
vt 0.1539 0.5257
vt 0.2036 0.5457
vt 0.1630 0.5444
vt 0.3984 0.2686
vt 0.3179 0.5826
vt 0.3297 0.5769
vt 0.4274 0.2550
vt 0.3793 0.5479
vt 0.3549 0.5382
vt 0.5273 0.2164
vt 0.5817 0.4175
vt 0.6213 0.3477
vt 0.6729 0.3047
vt 0.1247 0.6221
vt 0.7076 0.2644
vt 0.0609 0.5463
vt 0.0002 0.6241
vt 0.7588 0.2174
vt 0.7566 0.1481
vt 0.8286 0.1930
vt 0.5957 0.6384
vt 0.6454 0.5998
vt 0.5980 0.5142
vt 0.9165 0.1899
vt 0.9998 0.2214
vt 0.1608 0.3758
vt 0.0391 0.3834
vt 0.2367 0.5508
vt 0.2518 0.5892
vt 0.2367 0.5994
vt 0.2796 0.6194
vt 0.2790 0.6006
vt 0.2764 0.5440
vt 0.2530 0.5597
vt 0.2301 0.3563
vt 0.3118 0.3500
vt 0.2112 0.6308
vt 0.3450 0.3333
vt 0.2152 0.5281
vt 0.1454 0.5769
vt 0.5018 0.1200
vt 0.5475 0.3428
vt 0.4177 0.0426
vt 0.5281 0.2572
vt 0.6978 0.1958
vt 0.6758 0.1256
vt 0.7290 0.0765
vt 0.5473 0.5981
vt 0.5962 0.6179
vt 0.9826 0.1411
vt 0.0002 0.2817
vt 0.5281 0.6096
vt 0.0262 0.1662
vt 0.0873 0.2314
vt 0.3144 0.5916
vt 0.3019 0.5571
vt 0.3176 0.5478
vt 0.2773 0.5257
vt 0.2986 0.5834
vt 0.2089 0.3359
vt 0.2355 0.2684
vt 0.3731 0.2562
vt 0.3902 0.5840
vt 0.3902 0.5412
vt 0.3695 0.2276
vt 0.3537 0.6024
vt 0.3540 0.5892
vt 0.3787 0.5778
vt 0.3409 0.1607
vt 0.3384 0.0945
vt 0.3067 0.0002
vt 0.5482 0.1706
vt 0.1944 0.0002
vt 0.5982 0.1055
vt 0.0946 0.0667
vt 0.6598 0.0432
vt 0.7374 0.0002
vt 0.1206 0.1582
vt 0.1601 0.2194
vt 0.3016 0.1964
vt 0.2135 0.2253
vt 0.0337 0.6046
vt 0.0349 0.5723
vt 0.0900 0.6035
vt 0.0609 0.6173
vt 0.0870 0.5724
vt 0.0610 0.5624
vt 0.0609 0.5900
vt 0.2612 0.5830
vt 0.2780 0.5898
vt 0.2900 0.5789
vt 0.2764 0.5547
vt 0.2619 0.5646
vt 0.2920 0.5626
vt 0.2758 0.5717
vt 0.1707 0.5984
vt 0.1926 0.5968
vt 0.1714 0.5588
vt 0.2000 0.5790
vt 0.1620 0.5776
vt 0.1940 0.5607
vt 0.1809 0.5783
vt 0.5648 0.5876
vt 0.5966 0.6002
vt 0.5646 0.5482
vt 0.6328 0.5508
vt 0.6289 0.5886
vt 0.5979 0.5328
vt 0.5972 0.5664
vt 0.3379 0.5724
vt 0.3541 0.5806
vt 0.3711 0.5531
vt 0.3548 0.5466
vt 0.3382 0.5525
vt 0.3707 0.5730
vt 0.3545 0.5637
vn 0.0695 -0.9744 0.2138
vn 0.7170 -0.5984 0.3576
vn -0.1819 -0.9744 0.1321
vn -0.1819 -0.9744 -0.1321
vn 0.0695 -0.9744 -0.2138
vn 0.8559 -0.3736 0.3576
vn -0.0419 -0.1982 0.9793
vn -0.8298 0.2411 -0.5032
vn -0.4822 -0.3736 -0.7924
vn 0.7117 -0.2991 -0.6356
vn 0.7864 -0.2347 0.5714
vn -0.1589 -0.1264 0.9792
vn -0.5511 0.2661 0.7908
vn -0.3004 -0.2347 -0.9245
vn 0.2552 -0.9277 -0.2726
vn 0.4542 0.4274 0.7817
vn -0.5616 0.5984 0.5714
vn -0.6880 0.6020 -0.4053
vn 0.0439 0.5906 -0.8058
vn 0.7970 0.6036 -0.0221
vn 0.1819 0.9744 -0.1321
vn 0.6520 0.7567 -0.0493
vn 0.3120 0.9227 -0.2267
vn 0.2808 0.8439 -0.4571
vn 0.6891 0.7203 -0.0791
vn 0.6212 0.6406 -0.4514
vn 0.4328 0.7004 -0.5676
vn 0.3698 0.5984 -0.7107
vn -0.0695 0.9744 -0.2138
vn -0.0402 0.8318 -0.5536
vn -0.1451 0.8829 -0.4465
vn -0.3646 0.8119 -0.4560
vn -0.0682 0.6897 -0.7209
vn -0.2311 0.9663 -0.1133
vn 0.2161 0.1229 -0.9686
vn -0.9445 0.0199 -0.3279
vn -0.2248 0.9744 0.0000
vn -0.5289 0.8022 -0.2769
vn -0.3856 0.9227 0.0000
vn -0.4959 0.8439 0.2048
vn -0.6458 0.7126 -0.2740
vn -0.7679 0.6406 0.0000
vn -0.6838 0.7003 0.2048
vn -0.7170 0.5984 0.3576
vn -0.0695 0.9744 0.2138
vn -0.3480 0.8439 0.4084
vn -0.1192 0.9227 0.3667
vn 0.0415 0.8439 0.5349
vn -0.4060 0.7004 0.5871
vn -0.0646 0.5521 0.8313
vn -0.0638 0.5524 0.8312
vn 0.0974 0.4877 0.8676
vn 0.1819 0.9744 0.1321
vn 0.4302 0.8144 0.3895
vn 0.4412 0.8382 0.3206
vn 0.5995 0.7797 0.1807
vn 0.5223 0.6775 0.5179
vn 0.5946 0.4503 -0.6661
vn -0.1336 0.6817 0.7194
vn 0.7736 -0.4775 0.4167
vn 0.9729 0.2109 -0.0946
vn 0.6761 -0.5538 0.4860
vn 0.9038 0.1669 -0.3940
vn 0.7919 0.2045 -0.5754
vn 0.0794 -0.5762 -0.8134
vn 0.7648 -0.0039 -0.6442
vn 0.7843 0.1961 -0.5886
vn 0.4822 0.3736 -0.7924
vn 0.0090 0.4093 -0.9124
vn -0.1789 0.1106 -0.9776
vn -0.1245 0.3326 -0.9348
vn 0.3343 0.7187 -0.6096
vn -0.3088 0.0350 -0.9505
vn -0.4866 0.1311 -0.8637
vn -0.8480 0.5296 -0.0225
vn -0.4390 -0.2706 -0.8568
vn -0.8106 0.4040 -0.4239
vn -0.9766 0.0662 -0.2048
vn -0.9263 0.3060 -0.2197
vn -0.9100 0.4145 0.0000
vn -0.6771 -0.5330 -0.5074
vn -0.7338 0.6488 0.2015
vn -0.9322 0.2984 0.2048
vn -0.8559 0.3736 0.3576
vn -0.6046 0.3736 0.7035
vn -0.3300 0.1722 0.9281
vn -0.3294 0.2035 0.9220
vn -0.1708 0.3479 0.9218
vn -0.2027 0.0208 0.9790
vn -0.7016 -0.3456 0.6232
vn -0.6546 0.5904 0.4722
vn 0.0378 -0.7848 0.6186
vn 0.4842 0.3751 0.7905
vn 0.5754 0.2770 0.7695
vn 0.5780 0.2698 0.7701
vn 0.0589 0.9862 -0.1545
vn 0.8034 0.1177 0.5837
vn 0.8958 0.1840 0.4045
vn 0.8825 -0.1185 -0.4552
vn 0.2184 -0.0070 0.9758
vn 0.3004 0.2347 -0.9245
vn 0.6464 -0.1886 -0.7394
vn 0.3083 0.0677 -0.9489
vn 0.1070 -0.0662 -0.9921
vn 0.6463 -0.1890 -0.7393
vn 0.2832 -0.4003 -0.8715
vn 0.0933 -0.2984 -0.9499
vn -0.0756 -0.3736 -0.9245
vn -0.7519 0.2660 -0.6032
vn -0.6736 0.0268 -0.7386
vn -0.7635 0.1100 -0.6363
vn -0.9104 -0.0661 -0.4084
vn -0.6338 -0.2984 -0.7136
vn -0.7414 -0.4003 -0.5386
vn -0.8745 -0.2984 -0.3823
vn -0.9026 -0.3736 -0.2138
vn -0.7864 0.2347 0.5714
vn -0.5193 -0.8546 -0.0067
vn -0.8072 0.0677 0.5864
vn -0.6697 -0.0661 0.7397
vn -0.4343 -0.5220 0.7341
vn -0.7414 -0.4003 0.5386
vn -0.6338 -0.2984 0.7136
vn -0.4822 -0.3736 0.7924
vn 0.7555 0.5810 0.3027
vn 0.8029 -0.3494 0.4830
vn 0.1821 0.9373 0.2972
vn 0.3914 0.0108 0.9202
vn 0.1015 -0.1724 0.9798
vn 0.3018 -0.2152 0.9288
vn 0.3268 -0.2020 0.9233
vn 0.6046 -0.3736 0.7035
vn 0.9799 0.1879 -0.0669
vn 0.9988 0.0480 0.0120
vn 0.9979 0.0647 -0.0047
vn 0.2229 0.3526 -0.9088
vn 0.9805 -0.1961 0.0151
vn 0.9321 -0.3383 -0.1295
vn 0.8186 0.3501 0.4554
vn 0.6086 0.7702 -0.1911
vn 0.7181 -0.4534 -0.5280
vn 0.3480 -0.8439 -0.4084
vn 0.4216 -0.6916 -0.5864
vn 0.2403 -0.6286 -0.7397
vn 0.1242 -0.9157 -0.3823
vn -0.0265 -0.8421 -0.5386
vn 0.0166 -0.7003 -0.7136
vn -0.1185 -0.5984 -0.7924
vn -0.3698 -0.5984 -0.7107
vn -0.2808 -0.8439 -0.4571
vn -0.4275 -0.6916 -0.5821
vn -0.6292 -0.6286 -0.4572
vn -0.3252 -0.9157 -0.2363
vn -0.5205 -0.8421 -0.1412
vn -0.6736 -0.7004 -0.2363
vn -0.7902 -0.5984 -0.1321
vn -0.7902 -0.5984 0.1321
vn -0.5215 -0.8439 0.1258
vn -0.6857 -0.6917 0.2267
vn -0.6292 -0.6286 0.4572
vn -0.3252 -0.9157 0.2363
vn -0.2951 -0.8421 0.4514
vn -0.4328 -0.7004 0.5676
vn -0.3698 -0.5984 0.7107
vn 0.8010 -0.4777 -0.3607
vn 0.8279 -0.5232 -0.2023
vn 0.8184 -0.5300 -0.2220
vn 0.4959 -0.8439 -0.2048
vn 0.6838 -0.7003 0.2048
vn 0.5041 -0.8421 0.1917
vn 0.4020 -0.9157 0.0000
vn 0.2248 -0.9744 0.0000
vn -0.1185 -0.5984 0.7924
vn -0.0415 -0.8439 0.5349
vn 0.0037 -0.6916 0.7222
vn 0.2403 -0.6286 0.7397
vn 0.1242 -0.9157 0.3823
vn 0.3381 -0.8421 0.4202
vn 0.4060 -0.7003 0.5871
vn 0.5616 -0.5984 0.5714
vn -0.1433 0.9875 -0.0650
vn 0.4680 0.5900 -0.6579
vn -0.9589 -0.0565 -0.2779
vn -0.8473 0.5274 0.0625
vn 0.3886 0.1654 -0.9064
vn -0.3540 -0.3268 -0.8763
vn -0.2373 0.6406 -0.7303
vn -0.4060 0.7004 -0.5871
vn -0.5616 0.5984 -0.5714
vn -0.2812 0.4145 -0.8655
vn -0.4828 0.2984 -0.8233
vn -0.6046 0.3736 -0.7035
vn 0.5850 -0.2371 0.7756
vn -0.0995 -0.5313 0.8414
vn 0.6166 0.4806 0.6236
vn 0.0983 0.7832 0.6140
vn -0.4295 -0.3257 0.8423
vn -0.4604 0.4723 0.7516
vn -0.1201 0.0742 0.9900
vn -0.0933 0.2984 0.9499
vn 0.0756 0.3736 0.9245
vn 0.3004 0.2347 0.9245
vn 0.1070 -0.0662 0.9921
vn 0.3083 0.0677 0.9489
vn 0.7664 -0.4071 0.4969
vn 0.0760 0.9947 -0.0694
vn 0.1553 0.1176 0.9808
vn 0.9130 -0.1166 -0.3909
vn 0.6031 0.5071 -0.6158
vn -0.0721 0.5757 0.8145
vn 0.6212 0.6406 0.4514
vn 0.6736 0.7004 0.2363
vn 0.7902 0.5984 0.1321
vn 0.7362 0.4145 0.5349
vn 0.8745 0.2984 0.3823
vn 0.9026 0.3736 0.2138
vn -0.8342 0.4233 0.3535
vn -0.9547 0.1410 -0.2621
vn -0.6842 -0.3829 0.6207
vn -0.7509 0.2606 0.6068
vn -0.7225 -0.6879 0.0691
vn -0.8440 -0.4440 -0.3009
vn -0.9026 -0.3736 0.2138
vn -0.9721 -0.2347 -0.0000
vn -0.9988 -0.0500 -0.0000
vn -0.9786 0.0743 0.1917
vn -0.9104 -0.0661 0.4084
vn -0.8745 -0.2984 0.3823
vn 0.4956 -0.4478 -0.7442
vn 0.9635 0.2624 0.0522
vn 0.6105 0.1471 -0.7783
vn 0.8807 0.4281 -0.2027
vn 0.6199 -0.6964 -0.3617
vn 0.8978 -0.4275 0.1060
vn 0.7864 -0.2347 -0.5714
vn 0.9104 0.0661 -0.4084
vn 0.8080 -0.0500 -0.5871
vn 0.9766 -0.0662 -0.2048
vn 0.9322 -0.2984 -0.2048
vn 0.8559 -0.3736 -0.3576
s off
f 1/1/1 15/2/1 14/3/1
f 2/4/2 16/5/2 20/6/2
f 1/1/3 14/3/3 24/7/3
f 1/1/4 24/7/4 28/8/4
f 1/1/5 28/8/5 21/9/5
f 2/4/6 20/6/6 34/10/6
f 3/11/7 18/12/7 37/13/7
f 46/14/8 133/15/8 78/16/8
f 5/17/9 30/18/9 45/19/9
f 6/20/10 32/21/10 49/22/10
f 2/4/11 34/10/11 38/23/11
f 3/11/12 37/13/12 42/24/12
f 40/25/13 134/26/13 83/27/13
f 5/17/14 45/19/14 50/28/14
f 6/29/15 142/30/15 19/31/15
f 7/32/16 53/33/16 62/34/16
f 8/35/17 55/36/17 66/37/17
f 9/38/18 57/39/18 68/40/18
f 10/41/19 58/42/19 70/43/19
f 11/44/20 60/45/20 63/46/20
f 64/47/21 69/48/21 12/49/21
f 63/46/22 71/50/22 64/51/22
f 64/47/23 71/52/23 69/48/23
f 71/52/24 70/43/24 69/48/24
f 63/46/25 60/45/25 71/50/25
f 60/45/26 59/53/26 71/50/26
f 71/52/27 59/54/27 70/43/27
f 59/54/28 10/41/28 70/43/28
f 69/48/29 67/55/29 12/49/29
f 70/43/30 72/56/30 69/48/30
f 69/48/31 72/56/31 67/55/31
f 72/56/32 68/40/32 67/55/32
f 70/43/33 58/42/33 72/56/33
f 68/57/34 96/58/34 91/59/34
f 58/60/35 97/61/35 95/62/35
f 9/63/36 93/64/36 44/65/36
f 67/55/37 65/66/37 12/49/37
f 68/40/38 73/67/38 67/55/38
f 67/55/39 73/67/39 65/66/39
f 73/67/40 66/37/40 65/66/40
f 68/40/41 57/39/41 73/67/41
f 57/39/42 56/68/42 73/67/42
f 73/67/43 56/68/43 66/37/43
f 56/68/44 8/35/44 66/37/44
f 65/66/45 61/69/45 12/49/45
f 66/37/46 74/70/46 65/66/46
f 65/66/47 74/70/47 61/69/47
f 74/71/48 62/34/48 61/72/48
f 66/37/49 55/36/49 74/70/49
f 55/73/50 54/74/50 74/71/50
f 74/71/51 54/74/51 62/34/51
f 54/74/52 7/32/52 62/34/52
f 61/69/53 64/47/53 12/49/53
f 62/34/54 75/75/54 61/72/54
f 61/72/55 75/75/55 64/51/55
f 75/75/56 63/46/56 64/51/56
f 62/34/57 53/33/57 75/75/57
f 11/76/58 120/77/58 116/78/58
f 53/79/59 121/80/59 75/81/59
f 80/82/60 117/83/60 122/84/60
f 35/85/61 60/45/61 11/44/61
f 85/86/62 142/30/62 145/87/62
f 35/85/63 76/88/63 60/45/63
f 76/88/64 59/53/64 60/45/64
f 6/29/65 130/89/65 141/90/65
f 49/22/66 48/91/66 76/88/66
f 76/88/67 48/91/67 59/53/67
f 48/92/68 10/41/68 59/54/68
f 51/93/69 58/42/69 10/41/69
f 50/28/70 77/94/70 51/93/70
f 51/93/71 77/94/71 58/42/71
f 58/60/72 96/58/72 72/95/72
f 50/28/73 45/19/73 77/94/73
f 45/19/74 44/96/74 77/94/74
f 9/63/75 91/59/75 92/97/75
f 77/98/76 93/64/76 97/61/76
f 47/99/77 57/39/77 9/38/77
f 46/100/78 78/101/78 47/99/78
f 47/99/79 78/101/79 57/39/79
f 78/101/80 56/68/80 57/39/80
f 4/102/81 132/103/81 46/14/81
f 40/25/82 133/15/82 131/104/82
f 78/101/83 40/105/83 56/68/83
f 40/105/84 8/35/84 56/68/84
f 43/106/85 55/36/85 8/35/85
f 42/24/86 79/107/86 43/108/86
f 43/108/87 79/107/87 55/73/87
f 79/107/88 54/74/88 55/73/88
f 42/24/89 37/13/89 79/107/89
f 37/109/90 108/110/90 79/111/90
f 54/112/91 108/110/91 107/113/91
f 37/109/92 109/114/92 106/115/92
f 39/116/93 53/33/93 7/32/93
f 38/23/94 80/117/94 39/116/94
f 39/116/95 80/117/95 53/33/95
f 63/118/96 121/80/96 120/77/96
f 38/23/97 34/10/97 80/117/97
f 34/10/98 33/119/98 80/117/98
f 11/76/99 117/83/99 33/120/99
f 53/79/100 122/84/100 119/121/100
f 48/92/101 51/93/101 10/41/101
f 49/22/102 81/122/102 48/91/102
f 48/92/103 81/123/103 51/93/103
f 81/123/104 50/28/104 51/93/104
f 49/22/105 32/21/105 81/122/105
f 32/21/106 31/124/106 81/122/106
f 81/123/107 31/125/107 50/28/107
f 31/125/108 5/17/108 50/28/108
f 44/96/109 47/99/109 9/38/109
f 45/19/110 82/126/110 44/96/110
f 44/96/111 82/126/111 47/99/111
f 82/126/112 46/100/112 47/99/112
f 45/19/113 30/18/113 82/126/113
f 30/18/114 29/127/114 82/126/114
f 82/126/115 29/127/115 46/100/115
f 29/127/116 4/128/116 46/100/116
f 40/105/117 43/106/117 8/35/117
f 4/102/118 118/129/118 129/130/118
f 40/105/119 83/131/119 43/106/119
f 83/132/120 42/24/120 43/108/120
f 83/27/121 118/129/121 26/133/121
f 26/134/122 25/135/122 83/132/122
f 83/132/123 25/135/123 42/24/123
f 25/135/124 3/11/124 42/24/124
f 7/136/125 94/137/125 39/138/125
f 84/139/126 94/137/126 109/114/126
f 7/136/127 107/113/127 105/140/127
f 84/141/128 38/23/128 39/116/128
f 37/13/129 18/12/129 84/141/129
f 18/12/130 17/142/130 84/141/130
f 84/141/131 17/142/131 38/23/131
f 17/142/132 2/4/132 38/23/132
f 33/119/133 35/85/133 11/44/133
f 34/10/134 85/143/134 33/119/134
f 33/119/135 85/143/135 35/85/135
f 76/144/136 130/89/136 49/145/136
f 34/10/137 20/6/137 85/143/137
f 20/6/138 19/146/138 85/143/138
f 35/147/139 145/87/139 143/148/139
f 35/147/140 144/149/140 76/144/140
f 22/150/141 32/21/141 6/20/141
f 21/9/142 86/151/142 22/150/142
f 22/150/143 86/151/143 32/21/143
f 86/151/144 31/124/144 32/21/144
f 21/9/145 28/8/145 86/151/145
f 28/8/146 27/152/146 86/151/146
f 86/151/147 27/152/147 31/124/147
f 27/153/148 5/17/148 31/125/148
f 27/153/149 30/18/149 5/17/149
f 28/8/150 87/154/150 27/152/150
f 27/153/151 87/155/151 30/18/151
f 87/155/152 29/127/152 30/18/152
f 28/8/153 24/7/153 87/154/153
f 24/7/154 23/156/154 87/154/154
f 87/155/155 23/157/155 29/127/155
f 23/157/156 4/128/156 29/127/156
f 23/157/157 26/158/157 4/128/157
f 24/7/158 88/159/158 23/156/158
f 23/156/159 88/159/159 26/134/159
f 88/159/160 25/135/160 26/134/160
f 24/7/161 14/3/161 88/159/161
f 14/3/162 13/160/162 88/159/162
f 88/159/163 13/160/163 25/135/163
f 13/160/164 3/11/164 25/135/164
f 19/146/165 22/150/165 6/20/165
f 20/6/166 89/161/166 19/146/166
f 19/146/167 89/161/167 22/150/167
f 89/161/168 21/9/168 22/150/168
f 20/6/169 16/5/169 89/161/169
f 16/5/170 15/2/170 89/161/170
f 89/161/171 15/2/171 21/9/171
f 15/2/172 1/1/172 21/9/172
f 13/160/173 18/12/173 3/11/173
f 14/3/174 90/162/174 13/160/174
f 13/160/175 90/162/175 18/12/175
f 90/162/176 17/142/176 18/12/176
f 14/3/177 15/2/177 90/162/177
f 15/2/178 16/5/178 90/162/178
f 90/162/179 16/5/179 17/142/179
f 16/5/180 2/4/180 17/142/180
f 93/64/181 104/163/181 97/61/181
f 92/97/182 100/164/182 93/64/182
f 95/62/183 103/165/183 96/58/183
f 95/62/184 104/163/184 102/166/184
f 92/97/185 98/167/185 99/168/185
f 91/59/186 103/165/186 98/167/186
f 102/166/187 101/169/187 103/165/187
f 103/165/188 101/169/188 98/167/188
f 101/169/189 99/168/189 98/167/189
f 104/163/190 101/169/190 102/166/190
f 104/163/191 100/164/191 101/169/191
f 100/164/192 99/168/192 101/169/192
f 107/113/193 114/170/193 113/171/193
f 105/140/194 113/171/194 110/172/194
f 106/115/195 114/170/195 108/110/195
f 106/115/196 115/173/196 112/174/196
f 105/140/197 36/175/197 94/137/197
f 109/114/198 36/175/198 115/173/198
f 112/174/199 111/176/199 114/170/199
f 114/170/200 111/176/200 113/171/200
f 111/176/201 110/172/201 113/171/201
f 111/176/202 36/175/202 110/172/202
f 112/174/203 115/173/203 111/176/203
f 111/176/204 115/173/204 36/175/204
f 120/77/205 127/177/205 126/178/205
f 117/83/206 128/179/206 122/84/206
f 116/78/207 126/178/207 52/180/207
f 119/121/208 127/177/208 121/80/208
f 119/121/209 128/179/209 125/181/209
f 116/78/210 123/182/210 117/83/210
f 125/181/211 124/183/211 127/177/211
f 127/177/212 124/183/212 126/178/212
f 124/183/213 52/180/213 126/178/213
f 128/179/214 124/183/214 125/181/214
f 128/179/215 123/182/215 124/183/215
f 123/182/216 52/180/216 124/183/216
f 129/130/217 41/184/217 135/185/217
f 118/129/218 140/186/218 41/184/218
f 132/103/219 139/187/219 133/15/219
f 129/130/220 138/188/220 132/103/220
f 131/104/221 139/187/221 137/189/221
f 131/104/222 140/186/222 134/26/222
f 135/185/223 41/184/223 136/190/223
f 135/185/224 136/190/224 138/188/224
f 138/188/225 136/190/225 139/187/225
f 136/190/226 137/189/226 139/187/226
f 136/190/227 140/186/227 137/189/227
f 136/190/228 41/184/228 140/186/228
f 143/148/229 152/191/229 150/192/229
f 141/90/230 146/193/230 147/194/230
f 145/87/231 148/195/231 152/191/231
f 141/90/232 148/195/232 142/30/232
f 143/148/233 151/196/233 144/149/233
f 144/149/234 146/193/234 130/89/234
f 147/194/235 146/193/235 149/197/235
f 149/197/236 151/196/236 150/192/236
f 149/197/237 146/193/237 151/196/237
f 152/191/238 149/197/238 150/192/238
f 152/191/239 148/195/239 149/197/239
f 148/195/240 147/194/240 149/197/240
f 46/14/8 132/103/8 133/15/8
f 40/25/13 131/104/13 134/26/13
f 6/29/15 141/90/15 142/30/15
f 68/57/34 72/95/34 96/58/34
f 58/60/35 77/98/35 97/61/35
f 9/63/36 92/97/36 93/64/36
f 11/76/58 63/118/58 120/77/58
f 53/79/59 119/121/59 121/80/59
f 80/82/60 33/120/60 117/83/60
f 85/86/62 19/31/62 142/30/62
f 6/29/65 49/145/65 130/89/65
f 58/60/72 95/62/72 96/58/72
f 9/63/75 68/57/75 91/59/75
f 77/98/76 44/65/76 93/64/76
f 4/102/81 129/130/81 132/103/81
f 40/25/82 78/16/82 133/15/82
f 37/109/90 106/115/90 108/110/90
f 54/112/91 79/111/91 108/110/91
f 37/109/92 84/139/92 109/114/92
f 63/118/96 75/81/96 121/80/96
f 11/76/99 116/78/99 117/83/99
f 53/79/100 80/82/100 122/84/100
f 4/102/118 26/133/118 118/129/118
f 83/27/121 134/26/121 118/129/121
f 7/136/125 105/140/125 94/137/125
f 84/139/126 39/138/126 94/137/126
f 7/136/127 54/112/127 107/113/127
f 76/144/136 144/149/136 130/89/136
f 35/147/139 85/86/139 145/87/139
f 35/147/140 143/148/140 144/149/140
f 93/64/181 100/164/181 104/163/181
f 92/97/182 99/168/182 100/164/182
f 95/62/183 102/166/183 103/165/183
f 95/62/184 97/61/184 104/163/184
f 92/97/185 91/59/185 98/167/185
f 91/59/186 96/58/186 103/165/186
f 107/113/193 108/110/193 114/170/193
f 105/140/194 107/113/194 113/171/194
f 106/115/195 112/174/195 114/170/195
f 106/115/196 109/114/196 115/173/196
f 105/140/197 110/172/197 36/175/197
f 109/114/198 94/137/198 36/175/198
f 120/77/205 121/80/205 127/177/205
f 117/83/206 123/182/206 128/179/206
f 116/78/207 120/77/207 126/178/207
f 119/121/208 125/181/208 127/177/208
f 119/121/209 122/84/209 128/179/209
f 116/78/210 52/180/210 123/182/210
f 129/130/217 118/129/217 41/184/217
f 118/129/218 134/26/218 140/186/218
f 132/103/219 138/188/219 139/187/219
f 129/130/220 135/185/220 138/188/220
f 131/104/221 133/15/221 139/187/221
f 131/104/222 137/189/222 140/186/222
f 143/148/229 145/87/229 152/191/229
f 141/90/230 130/89/230 146/193/230
f 145/87/231 142/30/231 148/195/231
f 141/90/232 147/194/232 148/195/232
f 143/148/233 150/192/233 151/196/233
f 144/149/234 151/196/234 146/193/234
