# Blender v2.78 (sub 0) OBJ File: 'planet.blend'
# www.blender.org
o Icosphere.001_Icosphere.003
v -0.010789 -0.908079 -0.001237
v -0.829920 -0.451094 0.407624
v -0.652763 -0.451094 -0.653931
v 0.411588 -0.451094 -0.813491
v 0.892221 -0.451094 0.149471
v 0.124924 -0.451094 0.904150
v -0.913800 0.464423 -0.151944
v -0.146503 0.464423 -0.906623
v 0.808342 0.464423 -0.410097
v 0.631185 0.464423 0.651458
v -0.433167 0.464423 0.811018
v -0.010789 0.954531 -0.001237
v -0.388135 -0.849645 -0.384882
v -0.492264 -0.849644 0.239087
v -0.869607 -0.531459 -0.144559
v -0.412492 -0.531458 0.771257
v 0.068981 -0.849644 0.530938
v 0.237478 -0.849647 -0.478669
v -0.139867 -0.531462 -0.862317
v 0.519989 -0.849645 0.087348
v 0.768259 -0.531462 -0.390085
v 0.599759 -0.531459 0.619521
v -0.740528 0.006663 0.716514
v -0.179285 0.006663 1.008364
v -0.918904 0.006665 -0.473462
v -1.023040 0.006664 0.150501
v 0.157706 0.006666 -1.010838
v -0.467904 0.006665 -0.917055
v 1.001461 0.006665 -0.152975
v 0.718949 0.006666 -0.718987
v 0.446325 0.006664 0.914581
v 0.897325 0.006665 0.470989
v -0.789838 0.544791 0.387612
v -0.621338 0.544788 -0.621994
v 0.390913 0.544787 -0.773731
v 0.848028 0.544788 0.142086
v 0.118288 0.544791 0.859843
v -0.541568 0.867356 -0.089821
v -0.259057 0.867357 0.476196
v -0.090560 0.867355 -0.533411
v 0.470685 0.867355 -0.241560
v 0.366556 0.867356 0.382409
v 0.923611 0.082724 0.225252
v 0.939900 0.083578 0.126661
v 0.932061 0.165819 0.078221
v 0.907601 0.247607 0.129901
v 0.891735 0.246629 0.226096
v 0.898902 0.166778 0.275794
v 0.939567 0.097657 0.221308
v 0.953564 0.098391 0.136594
v 0.946828 0.169057 0.094972
v 0.925810 0.239334 0.139378
v 0.912178 0.238493 0.222034
v 0.918336 0.169881 0.264737
v 0.929994 0.111418 0.211038
v 0.940980 0.111994 0.144543
v 0.935693 0.167461 0.111873
v 0.919196 0.222623 0.146729
v 0.908496 0.221963 0.211607
v 0.913329 0.168108 0.245126
v 0.514703 -0.147248 -0.803232
v 0.484363 -0.079052 -0.828741
v 0.411380 -0.077254 -0.866949
v 0.378630 -0.140924 -0.874894
v 0.395250 -0.212352 -0.856058
v 0.482239 -0.214854 -0.810466
v 0.510561 -0.148559 -0.819570
v 0.484509 -0.090000 -0.841474
v 0.421840 -0.088456 -0.874283
v 0.393718 -0.143128 -0.881104
v 0.407989 -0.204462 -0.864930
v 0.482685 -0.206611 -0.825781
v 0.495990 -0.146860 -0.814387
v 0.473967 -0.097358 -0.832903
v 0.420991 -0.096053 -0.860638
v 0.397218 -0.142269 -0.866405
v 0.409282 -0.194118 -0.852732
v 0.472425 -0.195934 -0.819638
v -0.215168 0.655545 -0.692622
v -0.266735 0.669865 -0.656326
v -0.321078 0.645584 -0.655988
v -0.328044 0.597452 -0.699294
v -0.271169 0.579167 -0.741724
v -0.216163 0.608792 -0.737206
v -0.226639 0.658254 -0.700741
v -0.270429 0.670414 -0.669920
v -0.316576 0.649795 -0.669633
v -0.322492 0.608922 -0.706407
v -0.274194 0.593395 -0.742438
v -0.227484 0.618552 -0.738602
v -0.232620 0.645245 -0.693384
v -0.267392 0.654901 -0.668910
v -0.304036 0.638528 -0.668682
v -0.308734 0.606072 -0.697883
v -0.270382 0.593742 -0.726494
v -0.233291 0.613719 -0.723448
v -0.740874 -0.403017 -0.511483
v -0.784198 -0.442720 -0.390814
v -0.851551 -0.382424 -0.300743
v -0.876654 -0.247707 -0.356885
v -0.834766 -0.204317 -0.477552
v -0.771510 -0.272309 -0.553063
v -0.768697 -0.392073 -0.501410
v -0.802992 -0.423501 -0.405890
v -0.856308 -0.375772 -0.334592
v -0.876178 -0.269133 -0.379033
v -0.843021 -0.234786 -0.474551
v -0.792948 -0.288607 -0.534323
v -0.769915 -0.369546 -0.477047
v -0.794673 -0.392234 -0.408092
v -0.833161 -0.357778 -0.356621
v -0.847506 -0.280795 -0.388703
v -0.823569 -0.256000 -0.457658
v -0.787422 -0.294854 -0.500808
v -0.259273 -0.846182 0.250918
v -0.191020 -0.837337 0.341050
v -0.085200 -0.844458 0.353927
v -0.035366 -0.854659 0.299992
v -0.080399 -0.858600 0.204660
v -0.188898 -0.857626 0.172003
v -0.239417 -0.861818 0.259551
v -0.184007 -0.855216 0.332725
v -0.098096 -0.860695 0.343179
v -0.057639 -0.868645 0.299392
v -0.094198 -0.872239 0.221997
v -0.182284 -0.871079 0.195484
v -0.209693 -0.848407 0.259959
v -0.170073 -0.844220 0.312279
v -0.108646 -0.847861 0.319754
v -0.079719 -0.853258 0.288446
v -0.105859 -0.856177 0.233107
v -0.168842 -0.855035 0.214150
v 0.259975 0.649644 0.673483
v 0.307821 0.721735 0.573367
v 0.401605 0.721699 0.520403
v 0.472238 0.670956 0.531924
v 0.433344 0.590272 0.635693
v 0.330972 0.586407 0.697464
v 0.301069 0.665843 0.666232
v 0.334122 0.715645 0.597070
v 0.398910 0.715620 0.560481
v 0.447705 0.680566 0.568440
v 0.420836 0.624828 0.640126
v 0.350115 0.622158 0.682799
v 0.312294 0.653978 0.641601
v 0.337116 0.691378 0.589661
v 0.385770 0.691359 0.562184
v 0.422414 0.665034 0.568161
v 0.402236 0.623176 0.621995
v 0.349126 0.621171 0.654042
v -0.970972 0.006664 -0.161480
vt 0.5169 0.3600
vt 0.5920 0.3939
vt 0.5071 0.4428
vt 0.6780 0.4333
vt 0.6780 0.3262
vt 0.4335 0.3771
vt 0.4749 0.2873
vt 0.5728 0.2977
vt 0.8975 0.1824
vt 0.8001 0.1961
vt 0.8492 0.1039
vt 0.0512 0.1444
vt 0.0081 0.1985
vt 0.0550 0.0976
vt 0.3085 0.1751
vt 0.2080 0.1917
vt 0.2570 0.0966
vt 0.5060 0.1812
vt 0.4059 0.1933
vt 0.4571 0.1013
vt 0.7028 0.1819
vt 0.6050 0.1959
vt 0.6543 0.1034
vt 0.9478 0.1041
vt 0.1070 0.1777
vt 0.1568 0.0965
vt 0.3185 0.1371
vt 0.3592 0.0992
vt 0.5573 0.1019
vt 0.7517 0.1037
vt 0.1794 0.1987
vt 0.2723 0.2546
vt 0.1700 0.2952
vt 0.0607 0.3013
vt 0.0636 0.2917
vt 0.0871 0.3440
vt 0.0425 0.5108
vt 0.0001 0.4106
vt 0.1068 0.4380
vt 0.2548 0.5261
vt 0.1471 0.5405
vt 0.2016 0.4467
vt 0.3373 0.3417
vt 0.3101 0.4470
vt 0.2419 0.3604
vt 0.1615 0.3769
vt 0.2270 0.4650
vt 0.2330 0.4840
vt 0.0001 0.3019
vt 0.0777 0.2357
vt 0.7032 0.0115
vt 0.8004 0.0257
vt 0.6062 0.0255
vt 0.5110 0.0118
vt 0.5120 0.0770
vt 0.5152 0.0757
vt 0.4113 0.0203
vt 0.3104 0.0021
vt 0.2078 0.0150
vt 0.1061 0.0001
vt 0.0037 0.0142
vt 0.8976 0.0114
vt 0.9952 0.0240
vt 0.0001 0.0985
vt 0.9945 0.1985
vt 0.5340 0.1987
vt 0.6359 0.2276
vt 0.4287 0.2055
vt 0.3672 0.2920
vt 0.3375 0.3971
vt 0.4068 0.4814
vt 0.4975 0.5359
vt 0.5629 0.3508
vt 0.5584 0.3422
vt 0.5962 0.5000
vt 0.5207 0.0600
vt 0.5055 0.0592
vt 0.5231 0.0732
vt 0.5292 0.0776
vt 0.5186 0.0626
vt 0.5199 0.0717
vt 0.5171 0.0646
vt 0.5075 0.0624
vt 0.5019 0.0729
vt 0.5115 0.0758
vt 0.4954 0.0761
vt 0.5149 0.0749
vt 0.7646 0.2241
vt 0.7542 0.2429
vt 0.7483 0.2333
vt 0.5056 0.0718
vt 0.5113 0.0747
vt 0.5146 0.0741
vt 0.5090 0.0646
vt 0.3135 0.1236
vt 0.3177 0.1264
vt 0.3131 0.1242
vt 0.3115 0.1218
vt 0.3048 0.1342
vt 0.3170 0.1347
vt 0.2980 0.1217
vt 0.3110 0.1225
vt 0.3026 0.1243
vt 0.3137 0.1231
vt 0.3203 0.1253
vt 0.3254 0.1220
vt 0.3031 0.1363
vt 0.8108 0.2239
vt 0.8156 0.2321
vt 0.7971 0.2317
vt 0.3156 0.1327
vt 0.3065 0.1323
vt 0.3107 0.1232
vt 0.3055 0.1256
vt 0.0600 0.3009
vt 0.0598 0.2970
vt 0.0611 0.2954
vt 0.0542 0.2967
vt 0.0570 0.3109
vt 0.0480 0.3025
vt 0.0563 0.3068
vt 0.0580 0.2953
vt 0.0542 0.2971
vt 0.0404 0.3030
vt 0.0586 0.2939
vt 0.8198 0.2239
vt 0.8270 0.2359
vt 0.8198 0.2359
vt 0.0520 0.3014
vt 0.0574 0.2963
vt 0.0562 0.3039
vt 0.0591 0.3004
vt 0.0547 0.2978
vt 0.0526 0.1455
vt 0.0517 0.1534
vt 0.0478 0.1565
vt 0.0556 0.1574
vt 0.0597 0.1590
vt 0.0611 0.1298
vt 0.0715 0.1471
vt 0.0610 0.1376
vt 0.0350 0.1690
vt 0.0602 0.1567
vt 0.0815 0.1471
vt 0.0558 0.1561
vt 0.7402 0.2243
vt 0.7399 0.2450
vt 0.7275 0.2239
vt 0.0602 0.1545
vt 0.0654 0.1480
vt 0.0602 0.1426
vt 0.0541 0.1468
vt 0.0562 0.1547
vt 0.5516 0.3495
vt 0.5565 0.3431
vt 0.5546 0.3492
vt 0.5596 0.3541
vt 0.5664 0.3585
vt 0.5626 0.3501
vt 0.5695 0.3624
vt 0.5589 0.3540
vt 0.5486 0.3501
vt 0.5564 0.3395
vt 0.5589 0.3433
vt 0.5569 0.3352
vt 0.3234 0.2113
vt 0.3327 0.2232
vt 0.3242 0.2292
vt 0.5590 0.3448
vt 0.5584 0.3533
vt 0.5635 0.3550
vt 0.5620 0.3495
vt 0.2434 0.4682
vt 0.2456 0.4652
vt 0.2471 0.4659
vt 0.2489 0.4675
vt 0.2368 0.4536
vt 0.2329 0.4647
vt 0.2442 0.4693
vt 0.2361 0.4723
vt 0.2497 0.4592
vt 0.2386 0.4579
vt 0.2659 0.4559
vt 0.7877 0.2404
vt 0.7778 0.2287
vt 0.7858 0.2239
vt 0.2377 0.4688
vt 0.2460 0.4612
vt 0.2398 0.4607
vt 0.2428 0.4670
vt 0.2363 0.4647
vt 0.9999 0.1039
vt 0.7534 0.2239
vt 0.7704 0.2335
vt 0.7655 0.2429
vt 0.8001 0.2404
vt 0.8119 0.2404
vt 0.8008 0.2239
vt 0.8159 0.2298
vt 0.8280 0.2242
vt 0.8313 0.2307
vt 0.7271 0.2450
vt 0.7209 0.2355
vt 0.7480 0.2336
vt 0.3135 0.2267
vt 0.3135 0.2159
vt 0.3328 0.2157
vt 0.7968 0.2270
vt 0.7968 0.2355
vt 0.7767 0.2361
vn -0.1312 -0.9911 -0.0219
vn -0.5541 -0.6753 0.4868
vn -0.0197 -0.9911 -0.1316
vn 0.1190 -0.9911 -0.0594
vn 0.0933 -0.9911 0.0948
vn -0.6553 -0.3304 0.6793
vn -0.8485 -0.3304 -0.4133
vn 0.1309 -0.3304 -0.9347
vn 0.9294 -0.3304 -0.1643
vn 0.4435 -0.3304 0.8332
vn -0.8877 -0.1256 0.4431
vn -0.6957 -0.1256 -0.7073
vn 0.4577 -0.1256 -0.8802
vn 0.9785 -0.1256 0.1633
vn 0.1471 -0.1256 0.9811
vn -0.7381 0.6711 0.0696
vn -0.3108 0.6864 -0.6574
vn 0.5562 0.6711 -0.4902
vn 0.6380 0.6711 0.3775
vn -0.1619 0.6711 0.7235
vn 0.0291 0.9805 0.1942
vn 0.0883 0.8035 0.5887
vn 0.3882 0.6813 0.6205
vn 0.1937 0.9805 0.0323
vn 0.5872 0.8035 0.0980
vn 0.7261 0.6711 -0.1499
vn 0.0906 0.9805 -0.1742
vn 0.2747 0.8035 -0.5282
vn 0.0818 0.6711 -0.7368
vn -0.1377 0.9805 -0.1400
vn -0.4175 0.8035 -0.4244
vn -0.6755 0.6711 -0.3055
vn -0.1757 0.9805 0.0877
vn -0.5327 0.8035 0.2659
vn -0.4993 0.6711 0.5480
vn -0.1309 0.3304 0.9347
vn 0.1456 0.1876 0.9714
vn 0.3992 0.3304 0.8553
vn 0.8485 0.3304 0.4133
vn 0.9688 0.1876 0.1617
vn 0.9368 0.3304 -0.1154
vn 0.6553 0.3304 -0.6793
vn 0.4532 0.1876 -0.8715
vn 0.1797 0.3304 -0.9266
vn -0.4435 0.3304 -0.8332
vn -0.6888 0.1876 -0.7003
vn -0.8257 0.3304 -0.4573
vn -0.9294 0.3304 0.1643
vn -0.8789 0.1876 0.4387
vn -0.6900 0.3304 0.6440
vn 0.6957 0.1256 0.7073
vn 0.6888 -0.1876 0.7003
vn 0.8257 -0.3304 0.4573
vn 0.8877 0.1256 -0.4431
vn 0.8789 -0.1876 -0.4387
vn 0.6900 -0.3304 -0.6440
vn -0.1471 0.1256 -0.9811
vn -0.1456 -0.1876 -0.9714
vn -0.3992 -0.3304 -0.8553
vn -0.9785 0.1256 -0.1633
vn -0.9688 -0.1876 -0.1617
vn -0.9368 -0.3304 0.1154
vn -0.4577 0.1256 0.8802
vn -0.4532 -0.1876 0.8715
vn -0.1797 -0.3304 0.9266
vn 0.2918 -0.6753 0.6774
vn 0.4138 -0.8073 0.4207
vn 0.6725 -0.6753 0.3030
vn 0.7344 -0.6753 -0.0681
vn 0.5280 -0.8074 -0.2635
vn 0.4959 -0.6753 -0.5459
vn 0.1621 -0.6753 -0.7195
vn -0.0875 -0.8074 -0.5835
vn -0.3660 -0.6753 -0.6404
vn -0.0803 -0.6753 0.7332
vn -0.2722 -0.8073 0.5235
vn -0.0711 -0.9969 0.0327
vn -0.6342 -0.6753 -0.3765
vn -0.5820 -0.8073 -0.0971
vn -0.7221 -0.6753 0.1502
vn 0.5060 -0.3303 0.7967
vn 0.9683 -0.0634 -0.2415
vn 0.3812 0.9217 0.0722
vn 0.7458 -0.2839 -0.6026
vn 0.3598 0.5161 0.7773
vn 0.5683 0.5542 -0.6081
vn 0.6934 -0.7123 0.1084
vn 0.8355 -0.0924 0.5417
vn 0.7649 0.6305 0.1318
vn 0.8728 0.4130 -0.2602
vn 0.9401 -0.3052 0.1519
vn 0.7534 0.3856 0.5327
vn -0.3447 -0.4595 -0.8185
vn 0.2152 -0.8625 -0.4580
vn -0.3297 0.2820 -0.9010
vn 0.9150 0.3110 -0.2569
vn 0.8923 -0.4078 -0.1935
vn -0.4002 -0.3196 -0.8589
vn 0.3377 0.7156 -0.6114
vn -0.2999 0.2427 -0.9226
vn 0.9581 0.1603 -0.2375
vn 0.2217 -0.8578 -0.4638
vn 0.3488 0.6962 -0.6274
vn 0.8831 -0.4312 -0.1851
vn 0.0210 -0.0609 -0.9979
vn -0.2999 0.6617 -0.6872
vn 0.5615 0.5648 -0.6048
vn -0.6239 -0.1710 -0.7626
vn -0.4028 0.9036 0.1460
vn 0.0975 -0.0292 -0.9948
vn -0.9248 0.3196 -0.2065
vn 0.2488 0.9681 -0.0285
vn -0.4781 0.8731 0.0953
vn 0.5239 0.5266 -0.6695
vn -0.5982 -0.1681 -0.7835
vn -0.9240 0.2740 -0.2667
vn 0.2499 0.9649 -0.0808
vn -0.4376 -0.4141 -0.7981
vn -0.7041 0.1218 -0.6996
vn -0.9843 -0.1370 0.1114
vn -0.4601 -0.7811 -0.4222
vn -0.4404 -0.3643 -0.8206
vn -0.9419 0.2311 -0.2438
vn -0.6974 -0.7154 -0.0426
vn -0.9374 0.2311 -0.2605
vn -0.9740 -0.1884 0.1255
vn -0.4615 -0.7717 -0.4377
vn -0.7406 0.1509 -0.6548
vn -0.7350 -0.6781 -0.0052
vn -0.6357 -0.6945 0.3369
vn 0.0466 -0.9452 0.3232
vn -0.6609 -0.5139 0.5469
vn -0.4943 -0.8066 -0.3242
vn 0.5362 -0.8162 -0.2154
vn -0.1377 -0.4683 0.8728
vn 0.1499 -0.8391 -0.5229
vn 0.4371 -0.7193 0.5399
vn -0.0702 -0.9932 0.0931
vn 0.0027 -0.8765 -0.4814
vn -0.2264 -0.6521 0.7235
vn -0.4574 -0.8476 -0.2688
vn 0.3850 -0.8964 -0.2198
vn 0.3637 -0.8195 0.4428
vn -0.0572 0.9978 -0.0323
vn 0.3689 0.6617 0.6528
vn 0.0880 0.9840 0.1552
vn 0.5130 0.0760 0.8550
vn 0.5584 0.8138 0.1610
vn -0.2446 0.8385 0.4869
vn 0.0173 0.3715 0.9283
vn 0.8340 0.2380 0.4977
vn -0.0803 0.1130 0.9903
vn 0.9068 -0.0168 0.4213
vn 0.6734 0.7377 -0.0485
vn -0.4782 0.7711 0.4203
vn 0.4817 -0.2010 0.8530
vn -0.8485 -0.3304 -0.4134
vn -0.2732 0.6738 -0.6865
vn -0.2487 0.6712 -0.6983
vn -0.3045 0.6833 -0.6636
vn -0.2879 0.6779 -0.6765
vn 0.2926 0.7148 0.6351
vn 0.4532 0.6814 0.5748
vn 0.3579 0.6861 0.6333
vn 0.0102 -0.9959 0.0900
vn -0.1205 -0.9898 0.0759
vn 0.1134 -0.9693 -0.2181
vn 0.5061 -0.3303 0.7967
vn 0.9401 -0.3053 0.1519
vn -0.7350 -0.6780 -0.0052
vn -0.6450 -0.6861 0.3365
vn -0.2771 -0.9497 0.1458
vn -0.2357 -0.9600 0.1510
vn 0.0071 -0.9887 0.1497
vn -0.0720 -0.9751 0.2100
vn -0.6520 -0.5268 0.5454
vn -0.4938 -0.8072 -0.3233
vn 0.5237 -0.8248 -0.2133
vn -0.1361 -0.4616 0.8766
vn 0.1500 -0.8315 -0.5348
vn 0.4460 -0.7127 0.5415
vn -0.0390 -0.9933 0.1090
vn -0.0507 -0.9928 0.1088
vn -0.0850 -0.9921 0.0925
vn 0.0050 -0.8821 -0.4710
vn -0.2274 -0.6602 0.7158
vn -0.4475 -0.8537 -0.2663
vn 0.4033 -0.8869 -0.2253
vn 0.3635 -0.8197 0.4427
s off
f 1/1/1 14/2/1 13/3/1
f 2/4/2 14/2/2 16/5/2
f 1/1/3 13/3/3 18/6/3
f 1/1/4 18/6/4 20/7/4
f 1/1/5 20/7/5 17/8/5
f 2/9/6 16/10/6 23/11/6
f 100/12/7 15/13/7 25/14/7
f 4/15/8 19/16/8 27/17/8
f 5/18/9 21/19/9 29/20/9
f 6/21/10 22/22/10 31/23/10
f 2/9/11 23/11/11 26/24/11
f 3/25/12 25/14/12 28/26/12
f 4/15/13 66/27/13 30/28/13
f 5/18/14 29/20/14 32/29/14
f 6/21/15 31/23/15 24/30/15
f 7/31/16 33/32/16 38/33/16
f 80/34/17 81/35/17 40/36/17
f 9/37/18 35/38/18 41/39/18
f 10/40/19 36/41/19 42/42/19
f 11/43/20 37/44/20 39/45/20
f 39/45/21 42/42/21 12/46/21
f 39/45/22 37/44/22 42/42/22
f 135/47/23 136/48/23 42/42/23
f 42/42/24 41/39/24 12/46/24
f 42/42/25 36/41/25 41/39/25
f 36/41/26 9/37/26 41/39/26
f 41/39/27 40/36/27 12/46/27
f 41/39/28 35/38/28 40/36/28
f 35/38/29 8/49/29 40/36/29
f 40/36/30 38/33/30 12/46/30
f 40/36/31 34/50/31 38/33/31
f 34/50/32 7/31/32 38/33/32
f 38/33/33 39/45/33 12/46/33
f 38/33/34 33/32/34 39/45/34
f 33/32/35 11/43/35 39/45/35
f 24/30/36 37/51/36 11/52/36
f 24/30/37 31/23/37 37/51/37
f 31/23/38 10/53/38 37/51/38
f 32/29/39 36/54/39 10/53/39
f 32/29/40 44/55/40 43/56/40
f 29/20/41 9/57/41 36/54/41
f 30/28/42 35/58/42 9/57/42
f 30/28/43 27/17/43 35/58/43
f 27/17/44 8/59/44 35/58/44
f 28/26/45 34/60/45 8/59/45
f 28/26/46 25/14/46 34/60/46
f 25/14/47 7/61/47 34/60/47
f 26/24/48 33/62/48 7/63/48
f 26/24/49 23/11/49 33/62/49
f 23/11/50 11/52/50 33/62/50
f 31/23/51 32/29/51 10/53/51
f 31/23/52 22/22/52 32/29/52
f 22/22/53 5/18/53 32/29/53
f 29/20/54 30/28/54 9/57/54
f 29/20/55 21/19/55 30/28/55
f 21/19/56 4/15/56 30/28/56
f 27/17/57 28/26/57 8/59/57
f 27/17/58 19/16/58 28/26/58
f 19/16/59 3/25/59 28/26/59
f 25/14/60 151/64/60 7/61/60
f 25/14/61 15/13/61 151/64/61
f 15/65/62 2/9/62 26/24/62
f 23/11/63 24/30/63 11/52/63
f 23/11/64 16/10/64 24/30/64
f 16/10/65 6/21/65 24/30/65
f 17/8/66 22/66/66 6/67/66
f 17/8/67 20/7/67 22/66/67
f 20/7/68 5/68/68 22/66/68
f 20/7/69 21/69/69 5/68/69
f 20/7/70 18/6/70 21/69/70
f 18/6/71 4/70/71 21/69/71
f 18/6/72 19/71/72 4/70/72
f 18/6/73 13/3/73 19/71/73
f 13/3/74 3/72/74 19/71/74
f 16/5/75 17/8/75 6/67/75
f 16/5/76 14/2/76 17/8/76
f 116/73/77 117/74/77 17/8/77
f 13/3/78 15/75/78 3/72/78
f 13/3/79 14/2/79 15/75/79
f 14/2/80 2/4/80 15/75/80
f 36/54/40 47/76/40 46/77/40
f 43/56/81 54/78/81 48/79/81
f 53/80/82 60/81/82 59/82/82
f 46/77/83 53/80/83 52/83/83
f 44/55/84 51/84/84 50/85/84
f 47/76/85 54/78/85 53/80/85
f 46/77/86 51/84/86 45/86/86
f 43/56/87 50/85/87 49/87/87
f 58/88/40 55/89/40 56/90/40
f 52/83/88 57/91/88 51/84/88
f 49/87/89 56/92/89 55/93/89
f 49/87/90 60/81/90 54/78/90
f 52/83/91 59/82/91 58/94/91
f 50/85/92 57/91/92 56/92/92
f 68/95/93 73/96/93 74/97/93
f 30/28/13 63/98/13 27/17/13
f 66/27/94 71/99/94 72/100/94
f 64/101/95 69/102/95 70/103/95
f 62/104/96 67/105/96 68/95/96
f 61/106/97 72/100/97 67/105/97
f 64/101/98 71/99/98 65/107/98
f 62/104/99 69/102/99 63/98/99
f 74/108/13 73/109/13 76/110/13
f 67/105/100 78/111/100 73/96/100
f 70/103/101 77/112/101 71/99/101
f 68/95/102 75/113/102 69/102/102
f 72/100/103 77/112/103 78/111/103
f 70/103/104 75/113/104 76/114/104
f 86/115/105 93/116/105 87/117/105
f 34/50/106 83/118/106 8/49/106
f 79/119/107 90/120/107 85/121/107
f 83/118/108 88/122/108 89/123/108
f 80/34/109 87/117/109 81/35/109
f 83/118/110 90/120/110 84/124/110
f 82/125/111 87/117/111 88/122/111
f 80/34/112 85/121/112 86/115/112
f 95/126/106 92/127/106 91/128/106
f 89/123/113 96/129/113 90/120/113
f 88/122/114 93/116/114 94/130/114
f 86/115/115 91/131/115 92/132/115
f 85/121/116 96/129/116 91/131/116
f 89/123/117 94/130/117 95/133/117
f 106/134/118 111/135/118 105/136/118
f 98/137/7 97/138/7 3/25/7
f 101/139/119 108/140/119 107/141/119
f 100/12/120 105/136/120 99/142/120
f 98/137/121 103/143/121 97/138/121
f 97/138/122 108/140/122 102/144/122
f 100/12/123 107/141/123 106/134/123
f 98/137/124 105/136/124 104/145/124
f 110/146/7 112/147/7 109/148/7
f 104/145/125 109/149/125 103/143/125
f 103/143/126 114/150/126 108/140/126
f 106/134/127 113/151/127 112/152/127
f 104/145/128 111/135/128 110/153/128
f 107/141/129 114/150/129 113/151/129
f 125/154/130 130/155/130 131/156/130
f 120/157/131 14/2/131 1/1/131
f 116/73/132 121/158/132 122/159/132
f 115/160/133 126/161/133 121/158/133
f 119/162/134 124/163/134 125/154/134
f 116/73/135 123/164/135 117/74/135
f 119/162/136 126/161/136 120/157/136
f 117/74/137 124/163/137 118/165/137
f 131/166/138 129/167/138 128/168/138
f 122/159/139 129/169/139 123/164/139
f 125/154/140 132/170/140 126/161/140
f 123/164/141 130/155/141 124/163/141
f 122/159/142 127/171/142 128/172/142
f 126/161/143 127/171/143 121/158/143
f 143/173/144 150/174/144 144/175/144
f 10/40/145 138/176/145 37/44/145
f 134/177/146 141/178/146 135/47/146
f 137/179/147 144/175/147 138/176/147
f 135/47/148 142/180/148 136/48/148
f 134/177/149 139/181/149 140/182/149
f 138/176/150 139/181/150 133/183/150
f 137/179/151 142/180/151 143/173/151
f 149/184/145 147/185/145 146/186/145
f 141/178/152 148/187/152 142/180/152
f 140/182/153 145/188/153 146/189/153
f 144/175/154 145/188/154 139/181/154
f 143/173/155 148/187/155 149/190/155
f 140/182/156 147/191/156 141/178/156
f 151/192/61 15/65/61 26/24/61
f 7/63/60 151/192/60 26/24/60
f 25/14/157 3/25/157 102/144/157
f 25/14/7 102/144/7 101/139/7
f 100/12/7 99/142/7 15/13/7
f 25/14/7 101/139/7 100/12/7
f 4/15/13 27/17/13 65/107/13
f 27/17/13 64/101/13 65/107/13
f 61/106/13 30/28/13 66/27/13
f 4/15/13 65/107/13 66/27/13
f 40/36/158 8/49/158 84/124/158
f 40/36/159 84/124/159 79/119/159
f 81/35/160 34/50/160 40/36/160
f 40/36/161 79/119/161 80/34/161
f 42/42/162 37/44/162 134/177/162
f 37/44/145 133/183/145 134/177/145
f 136/48/163 10/40/163 42/42/163
f 42/42/164 134/177/164 135/47/164
f 29/20/40 45/86/40 44/55/40
f 43/56/40 48/79/40 32/29/40
f 29/20/40 44/55/40 32/29/40
f 14/2/165 115/160/165 116/73/165
f 117/74/166 118/165/166 17/8/166
f 17/8/167 14/2/167 116/73/167
f 45/86/40 29/20/40 36/54/40
f 36/54/40 32/29/40 47/76/40
f 32/29/40 48/79/40 47/76/40
f 46/77/40 45/86/40 36/54/40
f 43/56/168 49/87/168 54/78/168
f 53/80/82 54/78/82 60/81/82
f 46/77/83 47/76/83 53/80/83
f 44/55/84 45/86/84 51/84/84
f 47/76/85 48/79/85 54/78/85
f 46/77/86 52/83/86 51/84/86
f 43/56/87 44/55/87 50/85/87
f 56/90/40 57/193/40 58/88/40
f 58/88/40 59/194/40 55/89/40
f 60/195/40 55/89/40 59/194/40
f 52/83/88 58/94/88 57/91/88
f 49/87/89 50/85/89 56/92/89
f 49/87/90 55/93/90 60/81/90
f 52/83/169 53/80/169 59/82/169
f 50/85/92 51/84/92 57/91/92
f 68/95/93 67/105/93 73/96/93
f 30/28/13 61/106/13 62/104/13
f 63/98/13 64/101/13 27/17/13
f 30/28/13 62/104/13 63/98/13
f 66/27/94 65/107/94 71/99/94
f 64/101/95 63/98/95 69/102/95
f 62/104/96 61/106/96 67/105/96
f 61/106/97 66/27/97 72/100/97
f 64/101/98 70/103/98 71/99/98
f 62/104/99 68/95/99 69/102/99
f 77/196/13 76/110/13 78/197/13
f 75/198/13 74/108/13 76/110/13
f 73/109/13 78/197/13 76/110/13
f 67/105/100 72/100/100 78/111/100
f 70/103/101 76/114/101 77/112/101
f 68/95/102 74/97/102 75/113/102
f 72/100/103 71/99/103 77/112/103
f 70/103/104 69/102/104 75/113/104
f 86/115/105 92/132/105 93/116/105
f 34/50/106 81/35/106 82/125/106
f 83/118/106 84/124/106 8/49/106
f 34/50/106 82/125/106 83/118/106
f 79/119/107 84/124/107 90/120/107
f 83/118/108 82/125/108 88/122/108
f 80/34/109 86/115/109 87/117/109
f 83/118/110 89/123/110 90/120/110
f 82/125/111 81/35/111 87/117/111
f 80/34/112 79/119/112 85/121/112
f 91/128/106 96/199/106 95/126/106
f 95/126/106 94/200/106 92/127/106
f 93/201/106 92/127/106 94/200/106
f 89/123/113 95/133/113 96/129/113
f 88/122/114 87/117/114 93/116/114
f 86/115/115 85/121/115 91/131/115
f 85/121/116 90/120/116 96/129/116
f 89/123/117 88/122/117 94/130/117
f 106/134/118 112/152/118 111/135/118
f 15/13/7 99/142/7 98/137/7
f 97/138/7 102/144/7 3/25/7
f 15/13/7 98/137/7 3/25/7
f 101/139/119 102/144/119 108/140/119
f 100/12/120 106/134/120 105/136/120
f 98/137/121 104/145/121 103/143/121
f 97/138/122 103/143/122 108/140/122
f 100/12/123 101/139/123 107/141/123
f 98/137/124 99/142/124 105/136/124
f 113/202/7 114/203/7 109/148/7
f 109/148/7 112/147/7 113/202/7
f 111/204/7 112/147/7 110/146/7
f 104/145/125 110/153/125 109/149/125
f 103/143/126 109/149/126 114/150/126
f 106/134/127 107/141/127 113/151/127
f 104/145/128 105/136/128 111/135/128
f 107/141/170 108/140/170 114/150/170
f 125/154/171 124/163/171 130/155/171
f 1/1/172 17/8/172 118/165/172
f 1/1/173 118/165/173 119/162/173
f 120/157/174 115/160/174 14/2/174
f 1/1/175 119/162/175 120/157/175
f 116/73/176 115/160/176 121/158/176
f 115/160/177 120/157/177 126/161/177
f 119/162/178 118/165/178 124/163/178
f 116/73/179 122/159/179 123/164/179
f 119/162/180 125/154/180 126/161/180
f 117/74/181 123/164/181 124/163/181
f 128/168/182 127/205/182 132/206/182
f 132/206/183 131/166/183 128/168/183
f 130/207/184 129/167/184 131/166/184
f 122/159/185 128/172/185 129/169/185
f 125/154/186 131/156/186 132/170/186
f 123/164/187 129/169/187 130/155/187
f 122/159/188 121/158/188 127/171/188
f 126/161/189 132/170/189 127/171/189
f 143/173/144 149/190/144 150/174/144
f 10/40/145 136/48/145 137/179/145
f 138/176/145 133/183/145 37/44/145
f 10/40/145 137/179/145 138/176/145
f 134/177/146 140/182/146 141/178/146
f 137/179/147 143/173/147 144/175/147
f 135/47/148 141/178/148 142/180/148
f 134/177/149 133/183/149 139/181/149
f 138/176/150 144/175/150 139/181/150
f 137/179/151 136/48/151 142/180/151
f 146/186/145 145/208/145 150/209/145
f 150/209/145 149/184/145 146/186/145
f 148/210/145 147/185/145 149/184/145
f 141/178/152 147/191/152 148/187/152
f 140/182/153 139/181/153 145/188/153
f 144/175/154 150/174/154 145/188/154
f 143/173/155 142/180/155 148/187/155
f 140/182/156 146/189/156 147/191/156
