# Blender v2.77 (sub 0) OBJ File: 'health.blend'
# www.blender.org
mtllib model.mtl
o Icosphere
v 0.000000 -1.000000 0.000000
v 0.723600 -0.447215 0.525720
v -0.216909 -0.461893 0.667592
v -0.894425 -0.447215 0.000000
v -0.351746 -0.509369 -0.618705
v 0.648239 -0.509369 -0.293785
v 0.574473 0.859765 0.189095
v -0.575904 0.859765 -0.184685
v 0.154893 0.062084 -0.476720
v 0.019798 0.520271 -0.060931
v -0.140928 0.126795 0.433727
vt 0.6739 0.5441
vt 0.5057 0.4329
vt 0.6731 0.1917
vt 0.5162 0.7848
vt 0.8418 0.4311
vt 0.8321 0.7831
vt 0.3418 0.5689
vt 0.3321 0.2169
vt 1.0162 0.2152
vt 1.0057 0.5671
vt 1.1731 0.8083
vt 0.0162 0.2152
vt 0.6742 0.2160
vt 0.1731 0.8083
vt 0.1739 0.4559
vt 0.0057 0.5671
vn 0.1091 -0.7563 0.6451
vn 0.6049 -0.7963 0.0048
vn -0.4674 -0.7563 0.4577
vn -0.4921 -0.7963 -0.3517
vn 0.2210 -0.6991 -0.6800
vn 0.9913 0.0879 -0.0978
vn 0.1400 0.2619 0.9549
vn -0.6745 0.2619 0.6903
vn -0.7445 0.0879 -0.6618
vn 0.3088 -0.0376 -0.9504
vn -0.4871 0.3760 0.7883
vn -0.0623 0.2923 -0.9543
vn 0.6113 0.2923 -0.7354
vn -0.0693 0.3760 0.9240
vn -0.6005 0.7093 0.3691
vn 0.4937 0.6597 -0.5666
vn -0.0664 0.6597 -0.7486
vn 0.2689 0.7093 0.6516
usemtl Material
s off
f 1/1/1 2/2/1 3/3/1
f 2/2/2 1/1/2 6/4/2
f 1/1/3 3/3/3 4/5/3
f 1/1/4 4/5/4 5/6/4
f 1/1/5 5/6/5 6/4/5
f 2/2/6 6/4/6 7/7/6
f 3/3/7 2/2/7 7/8/7
f 4/5/8 3/3/8 8/9/8
f 5/6/9 4/5/9 8/10/9
f 6/4/10 5/6/10 9/11/10
f 8/12/11 3/3/11 11/13/11
f 5/6/12 8/10/12 9/11/12
f 6/4/13 9/14/13 7/7/13
f 3/3/14 7/8/14 11/13/14
f 7/8/15 10/15/15 11/13/15
f 9/14/16 8/16/16 10/15/16
f 7/7/17 9/14/17 10/15/17
f 11/13/18 10/15/18 8/12/18
