# Blender v2.77 (sub 0) OBJ File: 'health.blend'
# www.blender.org
o Plane
v 0.186600 0.660712 -0.000000
v 0.618398 0.055703 0.000000
v 0.294940 -0.471077 0.000000
v 0.747307 0.619646 -0.000000
v 0.463472 0.808149 -0.000000
v 0.789547 0.344906 0.000000
v 0.152537 0.589637 0.300000
v 0.507214 0.084710 0.300000
v 0.232649 -0.370695 0.300000
v 0.615236 0.542340 0.300000
v 0.383778 0.706447 0.300000
v 0.648936 0.318490 0.300000
v 0.645604 0.546959 -0.300000
v 0.410146 0.710188 -0.300000
v 0.259969 -0.379895 -0.300000
v 0.537190 0.083673 -0.300000
v 0.679590 0.320543 -0.300000
v 0.178061 0.590796 -0.300000
v 0.327211 0.342001 0.330358
v 0.258073 0.228845 0.328273
v 0.252656 -0.016971 0.313110
v 0.113280 -0.236364 0.313110
v -0.186600 0.660712 -0.000000
v -0.618398 0.055703 0.000000
v -0.294940 -0.471077 0.000000
v -0.747307 0.619646 -0.000000
v 0.000000 -0.609474 0.000000
v 0.000000 0.411890 -0.000000
v -0.463472 0.808149 -0.000000
v -0.789547 0.344906 0.000000
v -0.152537 0.589637 0.300000
v -0.507214 0.084710 0.300000
v -0.232649 -0.370695 0.300000
v -0.615236 0.542340 0.300000
v 0.000000 -0.486950 0.300000
v 0.000000 0.378651 0.300000
v -0.383778 0.706447 0.300000
v -0.648936 0.318490 0.300000
v -0.645604 0.546959 -0.300000
v -0.410146 0.710188 -0.300000
v -0.259969 -0.379895 -0.300000
v -0.537190 0.083673 -0.300000
v -0.679590 0.320543 -0.300000
v 0.000000 -0.493201 -0.300000
v -0.178061 0.590796 -0.300000
v 0.000000 0.380143 -0.300000
v 0.000000 -0.106055 0.327200
v -0.327211 0.342001 0.330358
v -0.258073 0.228845 0.328273
v -0.252656 -0.016971 0.313110
v -0.113280 -0.236364 0.313110
vt 0.6470 0.2389
vt 0.5023 0.2967
vt 0.5325 0.2202
vt 0.1107 0.7639
vt 0.2126 0.7328
vt 0.2599 0.7818
vt 0.6288 0.5686
vt 0.4829 0.5621
vt 0.5409 0.4635
vt 0.2933 0.4725
vt 0.4155 0.5525
vt 0.3344 0.5931
vt 0.5744 0.8282
vt 0.5129 0.6984
vt 0.6288 0.7036
vt 0.0810 0.6010
vt 0.0001 0.7004
vt 0.1689 0.6850
vt 0.5307 0.6258
vt 0.4312 0.4338
vt 0.4824 0.1552
vt 0.4383 0.3238
vt 0.3470 0.3085
vt 0.3366 0.4335
vt 0.4845 0.4335
vt 0.4991 0.0001
vt 0.4008 0.0909
vt 0.1030 0.3617
vt 0.0899 0.1969
vt 0.1699 0.2658
vt 0.5963 0.1018
vt 0.5872 0.3722
vt 0.2962 0.6849
vt 0.3864 0.6828
vt 0.4552 0.7758
vt 0.4244 0.6558
vt 0.6470 0.2389
vt 0.5023 0.2967
vt 0.5872 0.3722
vt 0.2126 0.7328
vt 0.4829 0.5621
vt 0.6288 0.5686
vt 0.5409 0.4635
vt 0.2933 0.4725
vt 0.4155 0.5525
vt 0.4312 0.4338
vt 0.5129 0.6984
vt 0.6288 0.7036
vt 0.0810 0.6010
vt 0.1689 0.6850
vt 0.8118 0.4338
vt 0.6736 0.4437
vt 0.6291 0.5526
vt 0.5307 0.6258
vt 0.3470 0.3085
vt 0.4824 0.1552
vt 0.4383 0.3238
vt 0.3366 0.4335
vt 0.4845 0.4335
vt 0.5963 0.1018
vt 0.1030 0.3617
vt 0.0001 0.2857
vt 0.1699 0.2658
vt 0.6713 0.6615
vt 0.9999 0.5526
vt 0.5325 0.2202
vt 0.3864 0.6828
vt 0.2962 0.6849
vt 0.3344 0.5931
vt 0.4244 0.6558
vt 0.9878 0.4437
vt 0.9883 0.6615
vn 0.5344 0.7709 -0.3467
vn 0.0421 -0.0712 0.9966
vn 0.5029 0.7573 0.4166
vn 0.8028 -0.4867 0.3446
vn -0.7990 0.5992 0.0512
vn 0.3984 -0.8491 0.3468
vn 0.8038 -0.4936 0.3321
vn -0.4630 0.8695 0.1718
vn 0.8927 0.1344 0.4302
vn 0.0000 -0.0000 -1.0000
vn 0.8300 -0.4912 -0.2643
vn -0.7619 0.6441 -0.0682
vn 0.3800 -0.8718 -0.3093
vn 0.8264 -0.4942 -0.2698
vn -0.4491 0.8729 -0.1907
vn 0.9264 0.1424 -0.3486
vn 0.0777 -0.0631 0.9950
vn 0.0676 -0.0408 0.9969
vn -0.0884 0.0356 0.9955
vn 0.0950 0.0143 0.9954
vn -0.0854 0.0617 0.9944
vn -0.0454 0.0899 0.9949
vn 0.0530 0.0747 0.9958
vn 0.0899 -0.0545 0.9945
vn -0.0766 0.0559 0.9955
vn 0.0337 -0.0674 0.9972
vn 0.0764 -0.0631 0.9951
vn 0.0716 -0.0455 0.9964
vn -0.5155 0.7763 -0.3628
vn -0.0421 -0.0712 0.9966
vn -0.5029 0.7573 0.4166
vn -0.8101 -0.4794 0.3375
vn 0.7990 0.5992 0.0512
vn -0.3984 -0.8491 0.3468
vn -0.8038 -0.4936 0.3321
vn 1.0000 0.0000 0.0000
vn 0.4630 0.8695 0.1718
vn -0.8930 0.1373 0.4285
vn -0.8300 -0.4912 -0.2643
vn 0.7946 0.5959 -0.1163
vn -0.4008 -0.8542 -0.3311
vn -0.8251 -0.5066 -0.2502
vn 0.4605 0.8647 -0.2005
vn -0.9264 0.1424 -0.3486
vn -0.0777 -0.0631 0.9950
vn -0.0676 -0.0408 0.9969
vn 0.0884 0.0356 0.9955
vn -0.0950 0.0143 0.9954
vn 0.0854 0.0617 0.9944
vn 0.0454 0.0899 0.9949
vn -0.0530 0.0747 0.9958
vn -0.0756 -0.0645 0.9950
vn 0.0766 0.0559 0.9955
vn -0.0337 -0.0674 0.9972
vn -0.0764 -0.0631 0.9951
vn -0.0716 -0.0455 0.9964
vn 0.5155 0.7763 -0.3628
vn 0.5313 0.7494 0.3952
vn 0.8101 -0.4794 0.3375
vn -0.8087 0.5847 0.0648
vn 0.4161 -0.8328 0.3651
vn 0.8039 -0.4847 0.3448
vn -0.4452 0.8813 0.1583
vn 0.8930 0.1373 0.4285
vn 0.8253 -0.4961 -0.2697
vn -0.7946 0.5959 -0.1163
vn 0.4008 -0.8542 -0.3311
vn 0.8251 -0.5066 -0.2502
vn -0.4605 0.8647 -0.2005
vn 0.9261 0.1390 -0.3507
vn 0.0639 -0.0406 0.9971
vn 0.0756 -0.0645 0.9950
vn -0.5344 0.7709 -0.3467
vn -0.5313 0.7494 0.3952
vn -0.8028 -0.4867 0.3446
vn 0.8087 0.5847 0.0648
vn -0.4161 -0.8328 0.3651
vn -0.8039 -0.4847 0.3448
vn 0.4452 0.8813 0.1583
vn -0.8927 0.1344 0.4302
vn -0.8253 -0.4961 -0.2697
vn 0.7619 0.6441 -0.0682
vn -0.3800 -0.8718 -0.3093
vn -0.8264 -0.4942 -0.2698
vn 0.4491 0.8729 -0.1907
vn -0.9261 0.1390 -0.3507
vn -0.0639 -0.0406 0.9971
vn -0.0899 -0.0545 0.9945
s off
f 5/1/1 13/2/1 14/3/1
f 35/4/2 22/5/2 47/6/2
f 5/7/3 10/8/3 4/9/3
f 2/10/4 12/11/4 8/12/4
f 28/13/5 7/14/5 1/15/5
f 3/16/6 35/4/6 27/17/6
f 2/10/7 9/18/7 3/16/7
f 1/15/8 11/19/8 5/7/8
f 6/20/9 10/8/9 12/11/9
f 18/21/10 17/22/10 16/23/10
f 2/24/11 17/22/11 6/25/11
f 28/26/12 18/21/12 46/27/12
f 3/28/13 44/29/13 15/30/13
f 2/24/14 15/30/14 16/23/14
f 1/31/15 14/3/15 18/21/15
f 6/25/16 13/2/16 4/32/16
f 47/6/17 21/33/17 20/34/17
f 21/33/18 9/18/18 8/12/18
f 36/35/19 20/34/19 19/36/19
f 12/11/20 10/8/20 19/36/20
f 19/36/21 7/14/21 36/35/21
f 19/36/22 11/19/22 7/14/22
f 19/36/23 10/8/23 11/19/23
f 19/36/24 8/12/24 12/11/24
f 20/34/25 36/35/25 47/6/25
f 22/5/26 35/4/26 9/18/26
f 20/34/27 21/33/27 8/12/27
f 22/5/28 21/33/28 47/6/28
f 29/37/29 39/38/29 26/39/29
f 35/4/30 47/6/30 51/40/30
f 34/41/31 29/42/31 26/43/31
f 24/44/32 38/45/32 30/46/32
f 31/47/33 28/13/33 23/48/33
f 35/4/34 25/49/34 27/17/34
f 33/50/35 24/44/35 25/49/35
f 47/51/36 35/52/36 27/53/36
f 37/54/37 23/48/37 29/42/37
f 30/46/38 34/41/38 26/43/38
f 42/55/10 45/56/10 46/27/10
f 43/57/39 24/58/39 30/59/39
f 28/26/40 45/56/40 23/60/40
f 25/61/41 44/29/41 27/62/41
f 24/58/42 41/63/42 25/61/42
f 44/64/36 28/65/36 27/53/36
f 23/60/43 40/66/43 29/37/43
f 39/38/44 30/59/44 26/39/44
f 47/6/45 49/67/45 50/68/45
f 33/50/46 50/68/46 32/69/46
f 36/35/47 48/70/47 49/67/47
f 38/45/48 48/70/48 34/41/48
f 48/70/49 36/35/49 31/47/49
f 48/70/50 31/47/50 37/54/50
f 48/70/51 37/54/51 34/41/51
f 48/70/52 32/69/52 49/67/52
f 49/67/53 47/6/53 36/35/53
f 51/40/54 33/50/54 35/4/54
f 49/67/55 32/69/55 50/68/55
f 51/40/56 47/6/56 50/68/56
f 5/1/57 4/32/57 13/2/57
f 5/7/58 11/19/58 10/8/58
f 2/10/59 6/20/59 12/11/59
f 28/13/60 36/35/60 7/14/60
f 3/16/61 9/18/61 35/4/61
f 2/10/62 8/12/62 9/18/62
f 1/15/63 7/14/63 11/19/63
f 6/20/64 4/9/64 10/8/64
f 15/30/10 44/29/10 46/27/10
f 46/27/10 18/21/10 16/23/10
f 14/3/10 13/2/10 18/21/10
f 16/23/10 15/30/10 46/27/10
f 13/2/10 17/22/10 18/21/10
f 2/24/65 16/23/65 17/22/65
f 28/26/66 1/31/66 18/21/66
f 3/28/67 27/62/67 44/29/67
f 2/24/68 3/28/68 15/30/68
f 1/31/69 5/1/69 14/3/69
f 6/25/70 17/22/70 13/2/70
f 21/33/71 22/5/71 9/18/71
f 19/36/72 20/34/72 8/12/72
f 29/37/73 40/66/73 39/38/73
f 34/41/74 37/54/74 29/42/74
f 24/44/75 32/69/75 38/45/75
f 31/47/76 36/35/76 28/13/76
f 35/4/77 33/50/77 25/49/77
f 33/50/78 32/69/78 24/44/78
f 27/53/36 28/65/36 47/51/36
f 36/71/36 47/51/36 28/65/36
f 37/54/79 31/47/79 23/48/79
f 30/46/80 38/45/80 34/41/80
f 46/27/10 44/29/10 41/63/10
f 42/55/10 43/57/10 45/56/10
f 46/27/10 41/63/10 42/55/10
f 40/66/10 45/56/10 39/38/10
f 43/57/10 39/38/10 45/56/10
f 43/57/81 42/55/81 24/58/81
f 28/26/82 46/27/82 45/56/82
f 25/61/83 41/63/83 44/29/83
f 24/58/84 42/55/84 41/63/84
f 44/64/36 46/72/36 28/65/36
f 23/60/85 45/56/85 40/66/85
f 39/38/86 43/57/86 30/59/86
f 33/50/87 51/40/87 50/68/87
f 48/70/88 38/45/88 32/69/88
