# Blender v2.77 (sub 0) OBJ File: 'ammo.blend'
# www.blender.org
o Cube
v 1.000000 -0.660693 -0.660693
v 0.660693 -1.000000 -0.660693
v 0.660693 -0.660693 -1.000000
v 1.000000 -0.660693 0.660694
v 0.660693 -0.660693 1.000000
v 0.660693 -1.000000 0.660693
v -0.660694 -0.660693 1.000000
v -1.000000 -0.660693 0.660693
v -0.660693 -1.000000 0.660693
v -0.660693 -0.660693 -1.000000
v -0.660693 -1.000000 -0.660694
v -1.000000 -0.660693 -0.660694
v 0.660694 0.660693 -1.000000
v 0.660694 1.000000 -0.660693
v 1.000000 0.660693 -0.660693
v 0.660693 0.660693 1.000000
v 1.000000 0.660693 0.660694
v 0.660693 1.000000 0.660694
v -1.000000 0.660693 0.660693
v -0.660694 0.660693 1.000000
v -0.660694 1.000000 0.660693
v -1.000000 0.660693 -0.660693
v -0.660693 1.000000 -0.660693
v -0.660693 0.660693 -1.000000
v 1.000000 -0.903334 -0.903334
v 1.000000 -0.903334 0.903334
v 0.903334 -1.000000 0.903334
v 0.903334 -1.000000 -0.903334
v -0.903334 -1.000000 -0.903334
v -0.903334 -0.903334 -1.000000
v 0.903334 -0.903334 -1.000000
v 0.903335 0.903334 -0.999999
v 1.000000 0.903334 -0.903334
v 0.903334 -0.903334 1.000000
v -0.903334 -0.903334 1.000000
v -0.903334 -1.000000 0.903334
v 0.999999 0.903334 0.903335
v 0.903333 0.903334 1.000001
v -1.000000 -0.903334 0.903334
v -1.000000 -0.903334 -0.903334
v -0.903334 0.903334 1.000000
v -1.000000 0.903334 0.903334
v -1.000000 0.903334 -0.903334
v -0.903334 0.903334 -1.000000
v 0.903334 1.000000 -0.903334
v 0.903333 1.000000 0.903335
v -0.903334 1.000000 -0.903334
v -0.903334 1.000000 0.903334
v 0.867036 -0.572845 -0.572845
v 0.867036 -0.572845 0.572845
v 0.572845 -0.867036 0.572845
v 0.572845 -0.867036 -0.572845
v -0.572845 -0.867036 -0.572845
v -0.572845 -0.572845 -0.867036
v 0.572845 -0.572845 -0.867036
v 0.572845 0.572845 -0.867036
v 0.867036 0.572845 -0.572845
v 0.572845 -0.572845 0.867036
v -0.572845 -0.572845 0.867036
v -0.572845 -0.867036 0.572845
v 0.867036 0.572845 0.572846
v 0.572845 0.572845 0.867037
v -0.867036 -0.572845 0.572845
v -0.867036 -0.572845 -0.572845
v -0.572845 0.572845 0.867036
v -0.867036 0.572845 0.572845
v -0.867036 0.572845 -0.572845
v -0.572845 0.572845 -0.867036
v 0.572845 0.867036 -0.572845
v 0.572845 0.867036 0.572845
v -0.572845 0.867036 -0.572845
v -0.572845 0.867036 0.572845
v -0.000000 0.497853 0.867037
v 0.434860 0.221494 0.867037
v 0.386091 -0.241815 0.867036
v -0.004064 -0.493789 0.867036
v -0.447052 -0.213366 0.867036
v -0.390155 0.237750 0.867036
v 0.398283 -0.249943 -0.867036
v 0.447052 0.217430 -0.867036
v 0.004064 0.493790 -0.867036
v -0.386090 0.241815 -0.867036
v -0.451116 -0.225558 -0.867036
v 0.000000 -0.497854 -0.867036
v 0.867036 -0.213366 0.406411
v 0.867036 0.229622 0.438924
v 0.867036 0.501918 -0.004064
v 0.867037 0.229622 -0.438924
v 0.867036 -0.213366 -0.406411
v 0.867036 -0.501918 -0.000000
v -0.867036 -0.233687 -0.442988
v -0.867036 0.213366 -0.402347
v -0.867036 0.497854 0.008128
v -0.867036 0.213366 0.410475
v -0.867037 -0.233687 0.442988
v -0.867036 -0.497854 -0.008128
v -0.386091 0.867036 0.270264
v -0.394219 0.867036 -0.282456
v 0.146308 0.867036 -0.453149
v 0.471437 0.867036 -0.002032
v 0.142244 0.867036 0.461277
v -0.000116 0.456497 0.764303
v 0.383222 0.212880 0.764303
v 0.340231 -0.195536 0.764302
v -0.003699 -0.417658 0.764302
v -0.394202 -0.170458 0.764303
v -0.344046 0.227210 0.764302
v 0.350978 -0.202701 -0.764319
v 0.393970 0.209297 -0.764319
v 0.003466 0.452914 -0.764319
v -0.340463 0.230793 -0.764319
v -0.397785 -0.181206 -0.764319
v -0.000116 -0.421240 -0.764319
v 0.764194 -0.170458 0.358252
v 0.764195 0.220045 0.386913
v 0.764194 0.460080 -0.003591
v 0.764195 0.220045 -0.386929
v 0.764194 -0.170458 -0.358268
v 0.764194 -0.424823 -0.000008
v -0.764427 -0.188371 -0.390512
v -0.764427 0.205715 -0.354686
v -0.764427 0.456497 0.007157
v -0.764427 0.205715 0.361834
v -0.764427 -0.188371 0.390495
v -0.764427 -0.421241 -0.007173
v -0.340463 0.781939 0.238235
v -0.347629 0.781939 -0.248999
v 0.128857 0.781939 -0.399468
v 0.415466 0.781939 -0.001800
v 0.125275 0.781939 0.406617
vt 0.0575 0.5046
vt 0.2655 0.5470
vt 0.2643 0.5742
vt 0.2359 0.1710
vt 0.0873 0.1628
vt 0.0629 0.1384
vt 0.0630 0.3518
vt 0.2225 0.3023
vt 0.2412 0.3168
vt 0.2244 0.6475
vt 0.0687 0.6336
vt 0.0419 0.6058
vt 0.4948 0.1235
vt 0.3260 0.1842
vt 0.3067 0.1697
vt 0.2844 0.3397
vt 0.2764 0.3558
vt 0.2685 0.3398
vt 0.5373 0.5633
vt 0.5137 0.5698
vt 0.5151 0.5456
vt 0.2684 0.6266
vt 0.2526 0.6266
vt 0.2606 0.6105
vt 0.0237 0.3987
vt 0.0226 0.4229
vt 0.0003 0.4055
vt 0.2636 0.1492
vt 0.2711 0.1323
vt 0.2798 0.1486
vt 0.5081 0.8774
vt 0.5328 0.8844
vt 0.5093 0.9014
vt 0.2533 0.8180
vt 0.2695 0.8175
vt 0.2619 0.8343
vt 0.0003 0.0850
vt 0.0236 0.0676
vt 0.0250 0.0917
vt 0.5337 0.4168
vt 0.0003 0.5516
vt 0.5292 0.0470
vt 0.0076 0.9202
vt 0.0751 0.4539
vt 0.2716 0.4192
vt 0.0947 0.4729
vt 0.4926 0.3626
vt 0.3127 0.3189
vt 0.2728 0.3921
vt 0.5262 0.4392
vt 0.4768 0.4627
vt 0.2952 0.6498
vt 0.4737 0.6166
vt 0.4629 0.5140
vt 0.4709 0.8304
vt 0.0076 0.5289
vt 0.2978 0.7959
vt 0.2265 0.7966
vt 0.0414 0.8443
vt 0.4720 0.0185
vt 0.2723 0.0956
vt 0.5364 0.0701
vt 0.0693 0.0414
vt 0.4632 0.9272
vt 0.0638 0.9480
vt 0.2607 0.8709
vt 0.0003 0.8975
vt 0.7321 0.7043
vt 0.6644 0.6761
vt 0.6373 0.6244
vt 0.9955 0.6244
vt 0.8989 0.7045
vt 0.8158 0.6473
vt 0.5370 0.1916
vt 0.7518 0.1916
vt 0.6424 0.2649
vt 0.7964 1.0023
vt 0.6355 1.0023
vt 0.7365 0.9855
vt 0.7542 0.0003
vt 0.6479 0.0735
vt 0.5370 0.0003
vt 0.9578 1.0023
vt 0.7969 0.8415
vt 0.9578 0.8415
vt 0.2197 0.1869
vt 0.2715 0.0685
vt 0.3143 0.7801
vt 0.3293 0.3033
vt 0.2614 0.8979
vt 0.2073 0.7821
vt 0.2077 0.6632
vt 0.3136 0.6645
vt 0.4468 0.8056
vt 0.0651 0.8123
vt 0.4434 0.4947
vt 0.0853 0.9659
vt 0.4659 0.3348
vt 0.0846 0.3237
vt 0.4707 0.1556
vt 0.4504 0.0003
vt 0.4516 0.6445
vt 0.9113 0.7608
vt 0.9952 0.8168
vt 0.8158 0.8402
vt 0.8376 0.3812
vt 0.8799 0.3268
vt 0.8577 0.3823
vt 0.7193 0.7616
vt 0.7894 0.7904
vt 0.8152 0.8409
vt 0.7944 0.4786
vt 0.8058 0.5572
vt 0.7831 0.4940
vt 0.5710 0.1911
vt 0.6493 0.1268
vt 0.7248 0.1891
vt 0.9479 0.3123
vt 0.8690 0.3093
vt 0.7193 0.3824
vt 0.5653 0.3811
vt 0.6423 0.3186
vt 0.8227 0.5632
vt 0.7531 0.5990
vt 0.6355 0.8415
vt 0.7359 0.8571
vt 0.6617 0.8840
vt 0.9920 0.3706
vt 0.9405 0.3312
vt 0.8652 0.5322
vt 0.9502 0.4843
vt 0.9720 0.5364
vt 0.8686 0.0892
vt 0.9770 0.0920
vt 0.8939 0.1398
vt 0.9448 0.4259
vt 0.8863 0.1904
vt 0.9740 0.2398
vt 0.8914 0.2865
vt 0.7013 0.5576
vt 0.8809 0.1546
vt 0.7162 0.4922
vt 0.7056 0.4786
vt 0.9635 0.1589
vt 0.9526 0.1411
vt 0.6837 0.5638
vt 0.9959 0.0901
vt 0.8799 0.3015
vt 0.8584 0.2443
vt 0.9571 0.0395
vt 0.9664 0.0207
vt 0.9599 0.3087
vt 0.9494 0.2906
vt 0.8944 0.0381
vt 0.8841 0.0207
vt 0.9929 0.2363
vt 0.8485 0.0863
vt 0.8743 0.6005
vt 0.9441 0.5850
vt 0.9561 0.6005
vt 0.9494 0.1919
vt 0.9578 0.1730
vt 0.9922 0.5347
vt 0.8760 0.1730
vt 0.9615 0.4675
vt 0.8376 0.2430
vt 0.8734 0.4432
vt 0.8852 0.4277
vt 0.8798 0.4638
vt 0.8880 0.4829
vt 0.9554 0.4432
vt 0.8464 0.5289
vt 0.9726 0.3751
vt 0.8862 0.5833
vt 0.7531 0.6160
vt 0.0805 0.4837
vt 0.8152 0.6481
vt 0.7939 0.7015
vt 0.6566 0.7654
vt 0.6355 0.8177
vt 0.9718 0.7642
vt 0.9679 0.6759
vt 0.8371 0.7018
vt 0.5791 0.3290
vt 0.7063 0.3332
vt 0.7160 0.2476
vt 0.5696 0.2454
vt 0.6606 0.9616
vt 0.7821 0.9222
vt 0.7107 0.1363
vt 0.7208 0.0539
vt 0.5843 0.1413
vt 0.5728 0.0564
vt 0.7969 1.0023
vt 0.0900 0.0199
vt 0.4423 0.9485
vt 0.4540 0.4832
vt 0.8428 0.7880
vt 0.7964 0.8415
vn 0.8343 -0.5512 0.0000
vn 0.0000 -0.8343 -0.5512
vn 0.0000 0.8343 -0.5512
vn -0.5512 0.8343 -0.0000
vn 0.5512 -0.8343 0.0000
vn 0.5773 -0.5774 -0.5774
vn 0.5774 -0.5774 0.5774
vn -0.5773 -0.5774 0.5774
vn -0.5774 -0.5773 -0.5774
vn 0.5773 0.5774 -0.5774
vn 0.5774 0.5774 0.5774
vn -0.5773 0.5773 0.5774
vn -0.5774 0.5773 -0.5774
vn 0.7071 -0.7071 0.0000
vn 0.0000 -0.7071 -0.7071
vn 0.7071 0.0000 -0.7071
vn -0.0000 -0.7071 0.7071
vn 0.7071 -0.0000 0.7071
vn -0.7071 -0.7071 -0.0000
vn -0.7071 0.0000 0.7071
vn -0.7071 0.0000 -0.7071
vn 0.7071 0.7071 0.0000
vn 0.0000 0.7071 -0.7071
vn -0.0000 0.7071 0.7071
vn -0.7071 0.7071 -0.0000
vn -0.0000 -0.5512 0.8343
vn 1.0000 0.0000 -0.0000
vn 0.0000 -1.0000 0.0000
vn 0.0000 0.0000 -1.0000
vn 0.0000 0.0000 1.0000
vn -1.0000 -0.0000 -0.0000
vn 0.0000 1.0000 0.0000
vn -0.8343 0.0000 -0.5512
vn -0.0000 0.5512 0.8343
vn 0.8343 0.0000 0.5512
vn 0.5512 -0.0000 0.8343
vn 0.0000 0.5512 -0.8343
vn -0.5512 -0.0000 -0.8343
vn 0.0000 0.8343 0.5512
vn -0.0000 -0.8343 0.5512
vn -0.5512 -0.0000 0.8343
vn 0.0000 -0.5512 -0.8343
vn 0.8343 0.5512 0.0000
vn 0.5512 0.8343 -0.0000
vn 0.8343 0.0000 -0.5512
vn 0.5512 0.0000 -0.8343
vn -0.5512 -0.8343 -0.0000
vn -0.8343 -0.5512 0.0000
vn -0.8343 0.5512 -0.0000
vn -0.8343 -0.0000 0.5512
vn 0.5216 0.6957 -0.4939
vn -0.7153 0.4719 0.5155
vn 0.5215 0.6957 0.4940
vn 0.2650 0.4750 0.8391
vn 0.4454 0.0655 0.8930
vn -0.8875 0.0926 -0.4513
vn -0.7189 0.4715 -0.5108
vn -0.5010 -0.8031 -0.3225
vn 0.2996 0.4726 -0.8288
vn 0.5150 -0.7975 -0.3143
vn -0.4249 -0.0820 0.9015
vn 0.9016 -0.1254 -0.4140
vn -0.3098 -0.7815 0.5416
vn 0.4357 0.7218 -0.5378
vn -0.3173 -0.7743 -0.5475
vn -0.4463 0.7171 -0.5353
vn -0.5078 -0.7990 0.3222
vn -0.4314 -0.0654 -0.8998
vn -0.8927 0.0940 0.4408
vn -0.5388 0.7270 -0.4257
vn -0.4610 0.7138 0.5273
vn -0.5408 0.7189 0.4367
vn 0.4455 0.0655 -0.8929
vn 0.4529 0.7155 0.5319
vn 0.3254 -0.8056 -0.4952
vn 0.9020 -0.1138 0.4165
vn 0.3280 -0.8007 0.5013
vn 0.5261 -0.7891 0.3171
vn 0.8792 0.4763 -0.0129
s off
f 11/1/1 60/2/1 9/3/1
f 13/4/2 68/5/2 24/6/2
f 10/7/3 55/8/3 3/9/3
f 8/10/4 64/11/4 12/12/4
f 17/13/5 57/14/5 15/15/5
f 25/16/6 28/17/6 31/18/6
f 26/19/7 34/20/7 27/21/7
f 35/22/8 39/23/8 36/24/8
f 30/25/9 29/26/9 40/27/9
f 32/28/10 45/29/10 33/30/10
f 38/31/11 37/32/11 46/33/11
f 42/34/12 41/35/12 48/36/12
f 43/37/13 47/38/13 44/39/13
f 26/40/14 28/17/14 25/16/14
f 29/26/15 31/18/15 28/17/15
f 32/28/16 25/16/16 31/18/16
f 35/22/17 27/21/17 34/20/17
f 26/19/18 38/31/18 34/20/18
f 40/41/19 36/24/19 39/23/19
f 41/35/20 39/23/20 35/22/20
f 43/37/21 30/25/21 40/27/21
f 46/42/22 33/30/22 45/29/22
f 44/39/23 45/29/23 32/28/23
f 48/36/24 38/31/24 46/33/24
f 47/43/25 42/34/25 48/36/25
f 11/44/26 52/45/26 53/46/26
f 4/47/27 25/16/27 1/48/27
f 2/49/28 27/50/28 6/51/28
f 11/44/28 28/17/28 2/49/28
f 3/9/29 30/25/29 10/7/29
f 13/4/29 31/18/29 3/9/29
f 1/48/27 33/30/27 15/15/27
f 7/52/30 34/20/30 5/53/30
f 6/54/28 36/24/28 9/3/28
f 17/13/27 26/40/27 4/47/27
f 5/53/30 38/31/30 16/55/30
f 12/12/31 39/23/31 8/10/31
f 9/3/28 29/56/28 11/1/28
f 20/57/30 35/22/30 7/52/30
f 8/10/31 42/34/31 19/58/31
f 22/59/31 40/41/31 12/12/31
f 24/6/29 30/25/29 44/39/29
f 18/60/32 45/29/32 14/61/32
f 15/15/27 37/62/27 17/13/27
f 24/6/29 32/28/29 13/4/29
f 14/61/32 47/38/32 23/63/32
f 18/64/32 48/36/32 46/33/32
f 20/57/30 38/31/30 41/35/30
f 23/65/32 48/36/32 21/66/32
f 19/58/31 43/67/31 22/59/31
f 81/68/29 82/69/29 68/70/29
f 58/71/30 76/72/30 59/73/30
f 66/74/31 67/75/31 93/76/31
f 69/77/32 71/78/32 99/79/32
f 49/80/27 90/81/27 50/82/27
f 52/83/28 60/84/28 53/85/28
f 3/9/33 56/86/33 13/4/33
f 23/63/34 69/87/34 14/61/34
f 7/52/35 65/88/35 20/57/35
f 1/48/36 57/14/36 49/89/36
f 18/64/37 72/90/37 21/66/37
f 8/10/38 66/91/38 63/92/38
f 5/53/39 59/93/39 7/52/39
f 20/57/40 62/94/40 16/55/40
f 12/12/41 67/95/41 22/59/41
f 6/54/42 60/2/42 51/96/42
f 21/66/43 71/97/43 23/65/43
f 4/47/44 49/89/44 50/98/44
f 10/7/45 68/5/45 54/99/45
f 4/47/46 61/100/46 17/13/46
f 22/59/47 66/91/47 19/58/47
f 6/51/48 52/45/48 2/49/48
f 14/61/49 70/101/49 18/60/49
f 16/55/50 58/102/50 5/53/50
f 73/103/30 62/104/30 65/105/30
f 85/106/51 119/107/51 114/108/51
f 84/109/29 79/110/29 55/111/29
f 100/112/52 128/113/52 129/114/52
f 61/115/27 87/116/27 57/117/27
f 89/118/53 119/107/53 90/119/53
f 64/120/31 63/121/31 96/122/31
f 99/123/54 127/124/54 128/113/54
f 72/125/32 101/126/32 97/127/32
f 88/128/55 118/129/55 89/118/55
f 107/130/30 105/131/30 104/132/30
f 108/133/29 111/134/29 109/135/29
f 116/136/27 114/108/27 118/129/27
f 125/137/31 123/138/31 121/139/31
f 126/140/32 129/114/32 128/113/32
f 80/141/56 108/133/56 109/135/56
f 100/112/57 130/142/57 101/143/57
f 81/144/58 109/135/58 110/145/58
f 97/146/59 130/142/59 126/140/59
f 81/144/60 111/134/60 82/147/60
f 92/148/61 120/149/61 121/139/61
f 82/147/62 112/150/62 83/151/62
f 93/152/63 121/139/63 122/153/63
f 83/151/64 113/154/64 84/155/64
f 93/152/65 123/138/65 94/156/65
f 79/157/66 113/154/66 108/133/66
f 73/158/67 103/159/67 74/160/67
f 94/156/68 124/161/68 95/162/68
f 74/160/69 104/132/69 75/163/69
f 95/162/70 125/137/70 96/164/70
f 75/163/71 105/131/71 76/165/71
f 91/166/72 125/137/72 120/149/72
f 86/167/73 114/108/73 115/168/73
f 77/169/74 105/131/74 106/170/74
f 87/171/75 115/168/75 116/136/75
f 78/172/76 106/170/76 107/130/76
f 87/171/77 117/173/77 88/128/77
f 73/158/78 107/130/78 102/174/78
f 97/146/79 127/124/79 98/175/79
f 11/1/1 53/176/1 60/2/1
f 13/4/2 56/86/2 68/5/2
f 10/7/3 54/99/3 55/8/3
f 8/10/4 63/92/4 64/11/4
f 17/13/5 61/100/5 57/14/5
f 26/40/14 27/50/14 28/17/14
f 29/26/15 30/25/15 31/18/15
f 32/28/16 33/30/16 25/16/16
f 35/22/17 36/24/17 27/21/17
f 26/19/18 37/32/18 38/31/18
f 40/41/19 29/56/19 36/24/19
f 41/35/20 42/34/20 39/23/20
f 43/37/21 44/39/21 30/25/21
f 46/42/22 37/62/22 33/30/22
f 44/39/23 47/38/23 45/29/23
f 48/36/24 41/35/24 38/31/24
f 47/43/25 43/67/25 42/34/25
f 11/44/26 2/49/26 52/45/26
f 4/47/27 26/40/27 25/16/27
f 2/49/28 28/17/28 27/50/28
f 11/44/28 29/26/28 28/17/28
f 3/9/29 31/18/29 30/25/29
f 13/4/29 32/28/29 31/18/29
f 1/48/27 25/16/27 33/30/27
f 7/52/30 35/22/30 34/20/30
f 6/54/28 27/21/28 36/24/28
f 17/13/27 37/62/27 26/40/27
f 5/53/30 34/20/30 38/31/30
f 12/12/31 40/41/31 39/23/31
f 9/3/28 36/24/28 29/56/28
f 20/57/30 41/35/30 35/22/30
f 8/10/31 39/23/31 42/34/31
f 22/59/31 43/67/31 40/41/31
f 24/6/29 10/7/29 30/25/29
f 18/60/32 46/42/32 45/29/32
f 15/15/27 33/30/27 37/62/27
f 24/6/29 44/39/29 32/28/29
f 14/61/32 45/29/32 47/38/32
f 18/64/32 21/66/32 48/36/32
f 20/57/30 16/55/30 38/31/30
f 23/65/32 47/43/32 48/36/32
f 19/58/31 42/34/31 43/67/31
f 56/177/29 80/178/29 81/68/29
f 82/69/29 83/179/29 68/70/29
f 68/70/29 56/177/29 81/68/29
f 83/179/29 54/180/29 68/70/29
f 58/71/30 62/104/30 74/181/30
f 58/71/30 74/181/30 75/182/30
f 76/72/30 77/183/30 59/73/30
f 58/71/30 75/182/30 76/72/30
f 95/184/31 63/121/31 66/74/31
f 67/75/31 64/120/31 91/185/31
f 67/75/31 91/185/31 92/186/31
f 94/187/31 95/184/31 66/74/31
f 67/75/31 92/186/31 93/76/31
f 93/76/31 94/187/31 66/74/31
f 71/78/32 98/188/32 99/79/32
f 99/79/32 100/189/32 69/77/32
f 49/80/27 57/117/27 88/190/27
f 49/80/27 88/190/27 89/191/27
f 86/192/27 61/115/27 50/82/27
f 85/193/27 86/192/27 50/82/27
f 49/80/27 89/191/27 90/81/27
f 90/81/27 85/193/27 50/82/27
f 52/83/28 51/194/28 60/84/28
f 3/9/33 55/8/33 56/86/33
f 23/63/34 71/195/34 69/87/34
f 7/52/35 59/93/35 65/88/35
f 1/48/36 15/15/36 57/14/36
f 18/64/37 70/196/37 72/90/37
f 8/10/38 19/58/38 66/91/38
f 5/53/39 58/102/39 59/93/39
f 20/57/40 65/88/40 62/94/40
f 12/12/41 64/11/41 67/95/41
f 6/54/42 9/3/42 60/2/42
f 21/66/43 72/90/43 71/97/43
f 4/47/44 1/48/44 49/89/44
f 10/7/45 24/6/45 68/5/45
f 4/47/46 50/98/46 61/100/46
f 22/59/47 67/95/47 66/91/47
f 6/51/48 51/197/48 52/45/48
f 14/61/49 69/87/49 70/101/49
f 16/55/50 62/94/50 58/102/50
f 65/105/30 59/73/30 77/183/30
f 65/105/30 77/183/30 78/198/30
f 73/103/30 74/181/30 62/104/30
f 65/105/30 78/198/30 73/103/30
f 85/106/51 90/119/51 119/107/51
f 54/180/29 83/179/29 84/109/29
f 79/110/29 80/178/29 55/111/29
f 55/111/29 54/180/29 84/109/29
f 80/178/29 56/177/29 55/111/29
f 100/112/52 99/123/52 128/113/52
f 61/115/27 86/192/27 87/116/27
f 87/116/27 88/190/27 57/117/27
f 89/118/53 118/129/53 119/107/53
f 63/121/31 95/184/31 96/122/31
f 96/122/31 91/185/31 64/120/31
f 99/123/54 98/175/54 127/124/54
f 98/188/32 71/78/32 72/125/32
f 70/199/32 69/77/32 100/189/32
f 70/199/32 100/189/32 101/126/32
f 97/127/32 98/188/32 72/125/32
f 72/125/32 70/199/32 101/126/32
f 88/128/55 117/173/55 118/129/55
f 104/132/30 103/159/30 107/130/30
f 102/174/30 107/130/30 103/159/30
f 106/170/30 105/131/30 107/130/30
f 110/145/29 109/135/29 111/134/29
f 108/133/29 113/154/29 111/134/29
f 112/150/29 111/134/29 113/154/29
f 118/129/27 117/173/27 116/136/27
f 116/136/27 115/168/27 114/108/27
f 114/108/27 119/107/27 118/129/27
f 121/139/31 120/149/31 125/137/31
f 125/137/31 124/161/31 123/138/31
f 123/138/31 122/153/31 121/139/31
f 128/113/32 127/124/32 126/140/32
f 126/140/32 130/142/32 129/114/32
f 80/141/56 79/157/56 108/133/56
f 100/112/57 129/114/57 130/142/57
f 81/144/58 80/141/58 109/135/58
f 97/146/59 101/143/59 130/142/59
f 81/144/60 110/145/60 111/134/60
f 92/148/61 91/166/61 120/149/61
f 82/147/62 111/134/62 112/150/62
f 93/152/63 92/148/63 121/139/63
f 83/151/64 112/150/64 113/154/64
f 93/152/65 122/153/65 123/138/65
f 79/157/66 84/155/66 113/154/66
f 73/158/67 102/174/67 103/159/67
f 94/156/68 123/138/68 124/161/68
f 74/160/69 103/159/69 104/132/69
f 95/162/70 124/161/70 125/137/70
f 75/163/71 104/132/71 105/131/71
f 91/166/72 96/164/72 125/137/72
f 86/167/73 85/106/73 114/108/73
f 77/169/74 76/165/74 105/131/74
f 87/171/75 86/167/75 115/168/75
f 78/172/76 77/169/76 106/170/76
f 87/171/77 116/136/77 117/173/77
f 73/158/78 78/172/78 107/130/78
f 97/146/79 126/140/79 127/124/79
