# Blender v2.77 (sub 0) OBJ File: 'spawn.blend'
# www.blender.org
o Cube
v -0.666286 -0.999812 0.666286
v -0.666286 -0.666286 0.999812
v -0.999812 -0.666286 0.666286
v -0.666286 0.666286 0.999812
v -0.666286 0.999812 0.666286
v -0.999812 0.666286 0.666286
v -0.666286 -0.999812 -0.666286
v -0.999812 -0.666286 -0.666286
v -0.666286 -0.666286 -0.999812
v -0.666286 0.999812 -0.666286
v -0.666286 0.666286 -0.999812
v -0.999812 0.666286 -0.666286
v 0.666286 -0.999812 0.666286
v 0.999812 -0.666286 0.666286
v 0.666286 -0.666286 0.999812
v 0.666286 0.999812 0.666286
v 0.666286 0.666286 0.999812
v 0.999812 0.666286 0.666286
v 0.666286 -0.999812 -0.666286
v 0.666286 -0.666286 -0.999812
v 0.999812 -0.666286 -0.666286
v 0.666286 0.999812 -0.666286
v 0.999812 0.666286 -0.666286
v 0.666286 0.666286 -0.999812
v -0.625453 -0.938540 -0.625453
v -0.625453 -0.938540 0.625453
v -0.938540 -0.625453 0.625453
v -0.938540 -0.625453 -0.625453
v -0.625453 -0.625453 0.938540
v -0.625453 0.625453 0.938540
v -0.938540 0.625453 0.625453
v -0.625453 0.891861 0.625453
v -0.625453 0.891861 -0.625453
v -0.938540 0.625453 -0.625453
v -0.625453 0.625453 -0.938540
v -0.625453 -0.625453 -0.938540
v 0.625453 -0.938540 -0.625453
v 0.625453 -0.625453 -0.938540
v 0.625453 0.891861 -0.625453
v 0.625453 0.625453 -0.938540
v 0.938540 0.625453 -0.625453
v 0.938540 -0.625453 -0.625453
v 0.625453 -0.938540 0.625453
v 0.938540 -0.625453 0.625453
v 0.625453 0.891861 0.625453
v 0.938540 0.625453 0.625453
v 0.625453 0.625453 0.938540
v 0.625453 -0.625453 0.938540
v -0.625453 0.491253 0.625453
v -0.625453 0.491253 -0.625453
v 0.625453 0.491253 -0.625453
v 0.625453 0.491253 0.625453
vt 0.4377 0.4257
vt 0.5504 0.4904
vt 0.5630 0.5089
vt 0.4141 0.4199
vt 0.4157 0.3568
vt 0.4196 0.3532
vt 0.5565 0.2870
vt 0.5687 0.2678
vt 0.3293 0.3431
vt 0.2239 0.2862
vt 0.2035 0.2577
vt 0.7271 0.7228
vt 0.0003 0.7766
vt 0.0433 0.7337
vt 0.5084 0.2053
vt 0.7223 0.0431
vt 0.2670 0.1976
vt 0.0426 0.0429
vt 0.5006 0.5697
vt 0.1981 0.5058
vt 0.2584 0.5665
vt 0.4441 0.3488
vt 0.4253 0.3299
vt 0.3483 0.3244
vt 0.3527 0.3489
vt 0.4186 0.4446
vt 0.3226 0.4193
vt 0.3469 0.4154
vt 0.3413 0.4386
vt 0.4429 0.4225
vt 0.2229 0.9997
vt 0.0003 0.7771
vt 0.2229 0.7771
vt 0.4461 0.9997
vt 0.2234 0.7771
vt 0.4461 0.7771
vt 0.8924 0.9207
vt 0.6698 0.9920
vt 0.6698 0.9207
vt 0.7699 0.4466
vt 0.9925 0.6692
vt 0.7699 0.6692
vt 0.7699 0.2234
vt 0.9925 0.4461
vt 0.7699 0.4461
vt 0.9925 0.6698
vt 0.7699 0.8924
vt 0.7699 0.6698
vt 0.3517 0.3195
vt 0.7693 0.7649
vt 0.3218 0.3481
vt 0.4152 0.4496
vt 0.2863 0.2099
vt 0.3509 0.4117
vt 0.3151 0.4144
vt 0.7646 0.0012
vt 0.4221 0.3247
vt 0.2769 0.5536
vt 0.2159 0.4748
vt 0.3563 0.3528
vt 0.4106 0.4160
vt 0.0003 0.0003
vt 0.4490 0.3522
vt 0.3446 0.4438
vt 0.4814 0.5577
vt 0.4900 0.2177
vt 0.7699 0.2229
vt 0.9925 0.0003
vt 0.9925 0.2229
vt 0.6692 0.9207
vt 0.4466 0.9920
vt 0.4466 0.9207
vt 0.4466 0.8484
vt 0.6692 0.7771
vt 0.6692 0.8484
vt 0.4466 0.9202
vt 0.6692 0.8489
vt 0.6692 0.9202
vt 0.0003 0.9997
vt 0.2234 0.9997
vt 0.8924 0.9920
vt 0.9925 0.4466
vt 0.9925 0.2234
vt 0.9925 0.8924
vt 0.7699 0.0003
vt 0.6692 0.9920
vt 0.4466 0.7771
vt 0.4466 0.8489
vn 0.0000 -0.5546 0.8321
vn 0.5546 0.8321 0.0000
vn 0.8321 -0.5546 0.0000
vn 0.0000 0.3538 -0.9353
vn -0.5546 0.0000 0.8321
vn -0.5774 -0.5774 0.5774
vn -0.5774 0.5774 0.5774
vn -0.5774 -0.5774 -0.5774
vn -0.5774 0.5774 -0.5774
vn 0.5774 -0.5774 0.5774
vn 0.5774 0.5774 0.5774
vn 0.5774 -0.5774 -0.5774
vn 0.5774 0.5774 -0.5774
vn -0.7071 -0.7071 0.0000
vn -0.7071 0.0000 0.7071
vn -0.7071 0.7071 0.0000
vn -0.7071 0.0000 -0.7071
vn 0.0000 -0.7071 -0.7071
vn 0.0000 0.7071 -0.7071
vn 0.7071 0.0000 -0.7071
vn 0.7071 -0.7071 0.0000
vn 0.7071 0.7071 0.0000
vn 0.7071 0.0000 0.7071
vn 0.0000 -0.7071 0.7071
vn 0.0000 0.7071 0.7071
vn -0.8321 -0.5546 0.0000
vn 0.0000 0.0000 1.0000
vn 1.0000 0.0000 0.0000
vn 0.0000 0.0000 -1.0000
vn -1.0000 0.0000 0.0000
vn 0.0000 -1.0000 0.0000
vn 0.0000 -0.8321 0.5546
vn -0.5546 0.8321 0.0000
vn -0.9353 0.3538 0.0000
vn 0.0000 0.8321 -0.5546
vn 0.8321 0.0000 0.5546
vn 0.5546 -0.8321 0.0000
vn 0.0000 0.3538 0.9353
vn -0.5546 0.0000 -0.8321
vn -0.8321 0.0000 0.5546
vn 0.0000 -0.8321 -0.5546
vn 0.9353 0.3538 0.0000
vn 0.5546 0.0000 -0.8321
vn 0.5546 0.0000 0.8321
vn -0.5546 -0.8321 0.0000
vn 0.0000 -0.5546 -0.8321
vn -0.8321 0.0000 -0.5546
vn 0.8321 0.0000 -0.5546
vn 0.0000 0.8321 0.5546
vn 0.0000 1.0000 0.0000
s off
f 19/1/1 25/2/1 7/3/1
f 21/4/2 44/5/2 14/6/2
f 7/3/3 26/7/3 1/8/3
f 16/9/4 32/10/4 5/11/4
f 8/12/5 34/13/5 12/14/5
f 1/8/6 2/15/6 3/16/6
f 4/17/7 5/11/7 6/18/7
f 7/3/8 8/12/8 9/19/8
f 10/20/9 11/21/9 12/14/9
f 13/22/10 14/6/10 15/23/10
f 16/9/11 17/24/11 18/25/11
f 19/1/12 20/26/12 21/4/12
f 22/27/13 23/28/13 24/29/13
f 1/8/14 8/12/14 7/3/14
f 4/17/15 3/16/15 2/15/15
f 10/20/16 6/18/16 5/11/16
f 9/19/17 12/14/17 11/21/17
f 7/3/18 20/26/18 19/1/18
f 22/27/19 11/21/19 10/20/19
f 21/4/20 24/29/20 23/28/20
f 19/1/21 14/6/21 13/22/21
f 16/9/22 23/28/22 22/27/22
f 15/23/23 18/25/23 17/24/23
f 13/22/24 2/15/24 1/8/24
f 5/11/25 17/24/25 16/9/25
f 13/22/26 37/30/26 19/1/26
f 47/31/27 29/32/27 48/33/27
f 41/34/28 44/35/28 42/36/28
f 45/37/29 49/38/29 32/39/29
f 31/40/30 28/41/30 27/42/30
f 35/43/29 38/44/29 36/45/29
f 37/46/31 26/47/31 25/48/31
f 4/17/32 47/49/32 17/24/32
f 3/16/33 28/50/33 8/12/33
f 22/27/34 45/51/34 16/9/34
f 9/19/35 38/52/35 20/26/35
f 2/15/36 30/53/36 4/17/36
f 18/25/37 41/54/37 23/28/37
f 10/20/38 39/55/38 22/27/38
f 6/18/39 27/56/39 3/16/39
f 17/24/40 48/57/40 15/23/40
f 24/29/41 35/58/41 11/21/41
f 5/11/42 33/59/42 10/20/42
f 14/6/43 46/60/43 18/25/43
f 23/28/44 42/61/44 21/4/44
f 12/14/45 31/62/45 6/18/45
f 1/8/46 43/63/46 13/22/46
f 20/26/47 40/64/47 24/29/47
f 11/21/48 36/65/48 9/19/48
f 15/23/49 29/66/49 2/15/49
f 50/67/50 52/68/50 51/69/50
f 39/70/30 52/71/30 45/72/30
f 33/73/27 51/74/27 39/75/27
f 32/76/28 50/77/28 33/78/28
f 19/1/1 37/30/1 25/2/1
f 21/4/2 42/61/2 44/5/2
f 7/3/3 25/2/3 26/7/3
f 16/9/4 45/51/4 32/10/4
f 8/12/5 28/50/5 34/13/5
f 1/8/14 3/16/14 8/12/14
f 4/17/15 6/18/15 3/16/15
f 10/20/16 12/14/16 6/18/16
f 9/19/17 8/12/17 12/14/17
f 7/3/18 9/19/18 20/26/18
f 22/27/19 24/29/19 11/21/19
f 21/4/20 20/26/20 24/29/20
f 19/1/21 21/4/21 14/6/21
f 16/9/22 18/25/22 23/28/22
f 15/23/23 14/6/23 18/25/23
f 13/22/24 15/23/24 2/15/24
f 5/11/25 4/17/25 17/24/25
f 13/22/26 43/63/26 37/30/26
f 47/31/27 30/79/27 29/32/27
f 41/34/28 46/80/28 44/35/28
f 45/37/29 52/81/29 49/38/29
f 31/40/30 34/82/30 28/41/30
f 35/43/29 40/83/29 38/44/29
f 37/46/31 43/84/31 26/47/31
f 4/17/32 30/53/32 47/49/32
f 3/16/33 27/56/33 28/50/33
f 22/27/34 39/55/34 45/51/34
f 9/19/35 36/65/35 38/52/35
f 2/15/36 29/66/36 30/53/36
f 18/25/37 46/60/37 41/54/37
f 10/20/38 33/59/38 39/55/38
f 6/18/39 31/62/39 27/56/39
f 17/24/40 47/49/40 48/57/40
f 24/29/41 40/64/41 35/58/41
f 5/11/42 32/10/42 33/59/42
f 14/6/43 44/5/43 46/60/43
f 23/28/44 41/54/44 42/61/44
f 12/14/45 34/13/45 31/62/45
f 1/8/46 26/7/46 43/63/46
f 20/26/47 38/52/47 40/64/47
f 11/21/48 35/58/48 36/65/48
f 15/23/49 48/57/49 29/66/49
f 50/67/50 49/85/50 52/68/50
f 39/70/30 51/86/30 52/71/30
f 33/73/27 50/87/27 51/74/27
f 32/76/28 49/88/28 50/77/28
