# Blender v2.77 (sub 0) OBJ File: 'moon1.blend'
# www.blender.org
o Icosphere
v -0.603238 0.001149 0.821661
v 0.723607 -0.447220 0.525725
v -0.276388 -0.447220 0.850649
v -0.894426 -0.447216 0.000000
v -0.276388 -0.447220 -0.850649
v 0.723607 -0.447220 -0.525725
v 0.276388 0.447220 0.850649
v -0.723607 0.447220 0.525725
v -0.723607 0.447220 -0.525725
v 0.276388 0.447220 -0.850649
v 0.894426 0.447216 0.000000
v -0.162456 -0.870654 0.499995
v -0.162456 -0.850654 0.499995
v 0.425323 -0.850654 0.309011
v 0.262869 -0.525738 0.809012
v 0.850648 -0.525736 0.000000
v 0.425323 -0.850654 -0.309011
v -0.525730 -0.850652 0.000000
v -0.688189 -0.525736 0.499997
v -0.162456 -0.850654 -0.499995
v -0.688189 -0.525736 -0.499997
v 0.262869 -0.525738 -0.809012
v 0.951058 0.000000 0.309013
v 0.951058 0.000000 -0.309013
v 0.000000 0.000000 1.000000
v 0.587786 0.000000 0.809017
v -0.951058 0.000000 0.309013
v -0.587786 0.000000 0.809017
v -0.587786 0.000000 -0.809017
v -0.951058 0.000000 -0.309013
v 0.587786 0.000000 -0.809017
v 0.000000 0.000000 -1.000000
v 0.688189 0.525736 0.499997
v -0.262869 0.525738 0.809012
v -0.850648 0.525736 0.000000
v -0.262869 0.525738 -0.809012
v 0.688189 0.525736 -0.499997
v 0.162456 0.850654 0.499995
v 0.525730 0.850652 0.000000
v -0.425323 0.850654 0.309011
v -0.425323 0.850654 -0.309011
v 0.162456 0.850654 -0.499995
v 0.525730 0.870652 -0.000000
v 0.000000 1.020000 -0.000000
v 0.162456 0.870654 0.499995
v -0.425323 0.870654 0.309011
v -0.425323 0.870654 -0.309011
v 0.162456 0.870654 -0.499995
v -0.000000 -1.020000 0.000000
v -0.525730 -0.870652 0.000000
v -0.162456 -0.870654 -0.499995
v 0.425323 -0.870654 0.309011
v 0.425323 -0.870654 -0.309011
v -0.739060 0.448368 0.538370
v -0.278322 0.526886 0.821656
v -0.291841 -0.446071 0.863294
v -0.703642 -0.524588 0.512642
v -0.966511 0.001149 0.321657
v -0.866101 0.526884 0.012645
v -0.690018 -0.534186 -0.518032
v -0.278217 -0.455669 -0.868684
v -0.589615 -0.008450 -0.827052
v -0.164285 -0.859104 -0.518030
v 0.261040 -0.534187 -0.827047
v -0.001829 -0.008450 -1.018035
v 0.585957 -0.008450 -0.827052
v 0.968483 0.000814 0.318796
v 0.741032 -0.446405 0.535508
v 0.968483 0.000814 -0.299229
v 0.911851 0.448030 0.009783
v 0.280294 -0.524923 0.818795
v 0.605210 0.000814 0.818800
v 0.705614 0.526551 0.509780
vt 0.7392 0.6813
vt 0.8194 0.6190
vt 0.8213 0.6216
vt 0.3829 0.1670
vt 0.3857 0.0782
vt 0.4520 0.1566
vt 0.6865 0.5192
vt 0.7880 0.5224
vt 0.6865 0.5224
vt 0.6532 0.6216
vt 0.7372 0.6786
vt 0.7353 0.6813
vt 0.6834 0.5214
vt 0.6551 0.6190
vt 0.6520 0.6180
vt 0.4139 0.2230
vt 0.2500 0.1550
vt 0.3177 0.1512
vt 0.2786 0.2119
vt 0.0887 0.1184
vt 0.1807 0.1305
vt 0.1285 0.2016
vt 0.8312 0.3239
vt 0.8826 0.4180
vt 0.7620 0.4057
vt 0.5303 0.1636
vt 0.6169 0.1210
vt 0.5902 0.2393
vt 0.0300 0.5876
vt 0.0746 0.5227
vt 0.0315 0.5904
vt 0.2086 0.2065
vt 0.0239 0.2037
vt 0.1447 0.5954
vt 0.1810 0.5226
vt 0.1477 0.5973
vt 0.4891 0.2296
vt 0.3082 0.2669
vt 0.3728 0.2843
vt 0.3020 0.3551
vt 0.1708 0.2639
vt 0.2413 0.2748
vt 0.1806 0.3550
vt 0.0002 0.3081
vt 0.0944 0.2874
vt 0.0656 0.3930
vt 0.5948 0.3388
vt 0.6483 0.4148
vt 0.5342 0.4179
vt 0.4422 0.2828
vt 0.5124 0.3130
vt 0.4224 0.3712
vt 0.3378 0.5520
vt 0.3414 0.6552
vt 0.3378 0.6581
vt 0.5012 0.6050
vt 0.4377 0.5236
vt 0.4388 0.5192
vt 0.6012 0.5188
vt 0.7062 0.4972
vt 0.4371 0.6866
vt 0.4388 0.6909
vt 0.3418 0.5544
vt 0.4966 0.6054
vt 0.6898 0.3086
vt 0.6345 0.6183
vt 0.6487 0.6965
vt 0.6311 0.6178
vt 0.5168 0.6179
vt 0.5733 0.5224
vt 0.5196 0.6202
vt 0.3457 0.2174
vt 0.0016 0.6962
vt 0.0750 0.7549
vt 0.0731 0.7578
vt 0.1252 0.5704
vt 0.0742 0.5192
vt 0.3375 0.5985
vt 0.3240 0.6816
vt 0.3344 0.5968
vt 0.3373 0.5947
vt 0.3011 0.5227
vt 0.3023 0.5192
vt 0.8117 0.5163
vt 0.9188 0.5188
vt 0.5163 0.6209
vt 0.5044 0.7009
vt 0.5015 0.7032
vt 0.5757 0.7034
vt 0.5771 0.7003
vt 0.5784 0.7035
vt 0.6517 0.6987
vt 0.1101 0.6660
vt 0.1243 0.5734
vt 0.1278 0.5734
vt 0.0281 0.5897
vt 0.0035 0.6934
vt 0.0002 0.6927
vt 0.5068 0.0700
vt 0.6060 0.0002
vt 0.2413 0.5575
vt 0.1797 0.5192
vt 0.2387 0.6637
vt 0.2412 0.6610
vt 0.9678 0.3318
vt 0.9998 0.4487
vt 0.1492 0.0299
vt 0.2648 0.0667
vt 0.8225 0.6180
vt 0.7911 0.5214
vt 0.4109 0.6050
vt 0.7372 0.5923
vt 0.6487 0.5432
vt 0.5748 0.5192
vt 0.6346 0.6170
vt 0.6517 0.5411
vt 0.2410 0.5609
vt 0.2403 0.5575
vt 0.2418 0.6645
vt 0.3262 0.6846
vt 0.1067 0.6661
vt 0.1412 0.7350
vt 0.0766 0.7578
vt 0.1444 0.7366
vt 0.1099 0.6663
vt 0.7880 0.5192
vt 0.5705 0.5202
vt 0.1451 0.5999
vn 0.3090 -0.0000 -0.9511
vn 0.7002 -0.6617 0.2680
vn -0.8090 0.0000 0.5878
vn 1.0000 0.0000 0.0000
vn 0.3090 0.0000 0.9511
vn 0.9050 -0.3304 0.2680
vn 0.0247 -0.3304 0.9435
vn -0.8897 -0.3304 0.3151
vn -0.5746 -0.3304 -0.7488
vn 0.5346 -0.3304 -0.7779
vn -0.4782 0.2955 0.8271
vn -0.3066 -0.1256 0.9435
vn -0.9921 -0.1256 0.0000
vn -0.4791 -0.7752 0.4118
vn 0.8026 -0.1256 -0.5831
vn 0.4089 0.6617 0.6284
vn -0.4713 0.6617 0.5831
vn -0.7002 0.6617 -0.2680
vn 0.0385 0.6617 -0.7488
vn 0.7240 0.6617 -0.1947
vn -0.3090 0.0000 0.9511
vn 0.4911 0.7947 -0.3568
vn 0.4089 0.6617 -0.6284
vn 0.8090 -0.0000 -0.5878
vn -0.1876 0.7947 -0.5773
vn -0.4713 0.6617 -0.5831
vn -1.0000 0.0000 0.0000
vn -0.6071 0.7947 0.0000
vn -0.7002 0.6617 0.2680
vn 0.8090 0.0000 0.5878
vn -0.1876 0.7947 0.5773
vn 0.0385 0.6617 0.7488
vn -0.3090 0.0000 -0.9511
vn 0.4911 0.7947 0.3568
vn 0.7240 0.6617 0.1947
vn 0.8897 0.3304 -0.3151
vn 0.7947 0.1876 -0.5773
vn 0.5746 0.3304 -0.7488
vn -0.0247 0.3304 -0.9435
vn -0.3035 0.1876 -0.9342
vn -0.5346 0.3304 -0.7779
vn -0.9050 0.3304 -0.2680
vn -0.9822 0.1876 0.0000
vn 0.5758 -0.3559 0.7360
vn -0.5650 -0.5163 -0.6436
vn -0.3035 0.1876 0.9342
vn -0.0247 0.3304 0.9435
vn 0.5746 0.3304 0.7488
vn 0.0333 0.9894 -0.1416
vn 0.1046 -0.9891 -0.1040
vn 0.3066 0.1256 -0.9435
vn 0.1403 0.8910 -0.4317
vn -0.1330 0.9026 -0.4094
vn -0.8026 0.1256 -0.5831
vn -0.7947 -0.1876 -0.5773
vn -0.8897 -0.3304 -0.3151
vn -0.6160 -0.3084 -0.7248
vn 0.1610 0.9811 0.1076
vn -0.0643 0.9837 -0.1680
vn 0.3066 0.1256 0.9435
vn 0.3035 -0.1876 0.9342
vn 0.4252 -0.5606 -0.7106
vn -0.4375 0.5163 0.7362
vn 0.9822 -0.1876 0.0000
vn 0.9050 -0.3304 -0.2680
vn 0.4713 -0.6617 -0.5831
vn 0.1876 -0.7947 -0.5773
vn -0.4483 0.8260 -0.3415
vn 0.6949 -0.6757 0.2461
vn -0.4911 -0.7947 -0.3568
vn -0.7240 -0.6617 -0.1947
vn -0.7240 -0.6617 0.1947
vn -0.4911 -0.7947 0.3568
vn -0.4089 -0.6617 0.6284
vn 0.7002 -0.6617 -0.2680
vn 0.6071 -0.7947 0.0000
vn -0.8090 0.0000 -0.5878
vn -0.0385 -0.6617 0.7488
vn 0.1876 -0.7947 0.5773
vn 0.4713 -0.6617 0.5831
vn 0.2680 0.9435 -0.1947
vn -0.1024 0.9435 -0.3151
vn -0.3313 0.9435 0.0000
vn -0.1024 0.9435 0.3151
vn 0.2680 0.9435 0.1947
vn 0.1024 -0.9435 0.3151
vn -0.2680 -0.9435 0.1947
vn -0.2680 -0.9435 -0.1947
vn 0.1024 -0.9435 -0.3151
vn 0.3313 -0.9435 0.0000
vn -0.9050 0.3304 0.2680
vn -0.5346 0.3304 0.7779
vn -0.8026 0.1256 0.5831
vn -0.7947 -0.1876 0.5773
vn -0.5746 -0.3304 0.7488
vn 0.0548 -0.9862 0.1565
vn 0.5807 0.4664 0.6673
vn -0.3066 -0.1256 -0.9435
vn 0.3035 -0.1876 -0.9342
vn 0.0247 -0.3304 -0.9435
vn -0.0385 -0.6617 -0.7488
vn -0.4089 -0.6617 -0.6284
vn -0.7571 -0.5587 0.3385
vn 0.8400 -0.5191 0.1580
vn 0.8026 -0.1256 0.5831
vn 0.7947 0.1876 0.5773
vn 0.8897 0.3304 0.3151
vn 0.5346 -0.3304 0.7779
vn 0.9921 0.1256 0.0000
vn 0.3867 0.5569 -0.7351
vn 0.0467 -0.9989 0.0000
s off
f 17/1/1 51/2/1 20/3/1
f 2/4/2 14/5/2 16/6/2
f 13/7/3 50/8/3 12/9/3
f 14/10/4 53/11/4 17/12/4
f 13/13/5 52/14/5 14/15/5
f 2/4/6 16/6/6 23/16/6
f 3/17/7 15/18/7 25/19/7
f 4/20/8 19/21/8 27/22/8
f 5/23/9 21/24/9 29/25/9
f 6/26/10 22/27/10 31/28/10
f 26/29/11 71/30/11 72/31/11
f 3/17/12 25/19/12 28/32/12
f 4/20/13 27/22/13 30/33/13
f 20/34/14 60/35/14 63/36/14
f 6/26/15 31/28/15 24/37/15
f 7/38/16 33/39/16 38/40/16
f 8/41/17 34/42/17 40/43/17
f 9/44/18 35/45/18 41/46/18
f 10/47/19 36/48/19 42/49/19
f 11/50/20 37/51/20 39/52/20
f 38/53/21 46/54/21 40/55/21
f 39/52/22 37/51/22 42/49/22
f 37/51/23 10/47/23 42/49/23
f 42/56/24 43/57/24 39/58/24
f 42/49/25 36/48/25 41/59/25
f 36/48/26 9/60/26 41/59/26
f 40/55/27 47/61/27 41/62/27
f 41/46/28 35/45/28 40/43/28
f 35/45/29 8/41/29 40/43/29
f 38/53/30 43/57/30 45/63/30
f 40/43/31 34/42/31 38/40/31
f 34/42/32 7/38/32 38/40/32
f 41/62/33 48/64/33 42/56/33
f 38/40/34 33/39/34 39/52/34
f 33/39/35 11/50/35 39/52/35
f 24/37/36 37/51/36 11/50/36
f 24/37/37 31/28/37 37/51/37
f 31/28/38 10/47/38 37/51/38
f 32/65/39 36/48/39 10/47/39
f 32/65/40 29/25/40 36/48/40
f 29/25/41 9/60/41 36/48/41
f 30/33/42 35/45/42 9/44/42
f 30/33/43 27/22/43 35/45/43
f 28/66/44 55/67/44 1/68/44
f 27/69/45 57/70/45 58/71/45
f 28/32/46 25/19/46 34/42/46
f 25/19/47 7/38/47 34/42/47
f 26/72/48 33/39/48 7/38/48
f 33/73/49 70/74/49 11/75/49
f 2/76/50 71/30/50 15/77/50
f 31/28/51 32/65/51 10/47/51
f 32/78/52 66/79/52 65/80/52
f 32/81/53 62/82/53 29/83/53
f 29/25/54 30/84/54 9/60/54
f 29/25/55 21/24/55 30/84/55
f 21/24/56 4/85/56 30/84/56
f 27/86/57 59/87/57 35/88/57
f 8/89/58 59/87/58 54/90/58
f 8/91/59 55/67/59 34/92/59
f 25/19/60 26/72/60 7/38/60
f 25/19/61 15/18/61 26/72/61
f 23/93/62 68/94/62 2/95/62
f 26/96/63 73/97/63 33/98/63
f 23/16/64 16/6/64 24/37/64
f 16/6/65 6/26/65 24/37/65
f 17/99/66 22/27/66 6/26/66
f 17/99/67 20/100/67 22/27/67
f 5/101/68 60/35/68 21/102/68
f 22/103/69 63/36/69 64/104/69
f 20/105/70 18/106/70 21/24/70
f 18/106/71 4/85/71 21/24/71
f 18/107/72 19/21/72 4/20/72
f 18/107/73 13/108/73 19/21/73
f 13/108/74 3/17/74 19/21/74
f 16/6/75 17/99/75 6/26/75
f 16/6/76 14/5/76 17/99/76
f 20/109/77 50/8/77 18/110/77
f 13/108/78 15/18/78 3/17/78
f 13/108/79 14/5/79 15/18/79
f 14/5/80 2/4/80 15/18/80
f 43/57/81 48/64/81 44/111/81
f 48/64/82 47/61/82 44/111/82
f 47/61/83 46/54/83 44/111/83
f 46/54/84 45/63/84 44/111/84
f 45/63/85 43/57/85 44/111/85
f 49/112/86 52/14/86 12/9/86
f 49/112/87 12/9/87 50/8/87
f 49/112/88 50/8/88 51/2/88
f 49/112/89 51/2/89 53/11/89
f 52/14/90 49/112/90 53/11/90
f 58/71/91 54/90/91 59/87/91
f 1/68/92 55/67/92 54/90/92
f 58/71/93 1/68/93 54/90/93
f 58/71/94 57/70/94 1/68/94
f 57/70/95 56/113/95 1/68/95
f 19/114/96 56/113/96 57/70/96
f 28/115/97 56/113/97 3/116/97
f 61/117/98 62/82/98 65/80/98
f 66/79/99 64/104/99 65/80/99
f 64/104/100 61/117/100 65/80/100
f 63/36/101 61/117/101 64/104/101
f 63/36/102 60/35/102 61/117/102
f 5/118/103 62/82/103 61/117/103
f 22/119/104 66/79/104 31/120/104
f 68/94/105 67/121/105 72/31/105
f 72/31/106 67/121/106 73/97/106
f 67/121/107 70/74/107 73/97/107
f 71/30/108 68/94/108 72/31/108
f 67/121/109 69/122/109 70/74/109
f 11/123/110 69/122/110 24/124/110
f 23/125/111 69/122/111 67/121/111
f 17/1/1 53/11/1 51/2/1
f 13/7/3 18/126/3 50/8/3
f 14/10/4 52/14/4 53/11/4
f 13/13/5 12/9/5 52/14/5
f 26/29/11 15/77/11 71/30/11
f 20/34/14 21/102/14 60/35/14
f 38/53/21 45/63/21 46/54/21
f 42/56/24 48/64/24 43/57/24
f 40/55/27 46/54/27 47/61/27
f 38/53/30 39/58/30 43/57/30
f 41/62/33 47/61/33 48/64/33
f 28/66/44 34/92/44 55/67/44
f 27/69/45 19/127/45 57/70/45
f 33/73/49 73/97/49 70/74/49
f 2/76/50 68/94/50 71/30/50
f 32/78/52 31/120/52 66/79/52
f 32/81/53 65/80/53 62/82/53
f 27/86/57 58/71/57 59/87/57
f 8/89/58 35/88/58 59/87/58
f 8/91/59 54/90/59 55/67/59
f 23/93/62 67/121/62 68/94/62
f 26/96/63 72/31/63 73/97/63
f 5/101/68 61/117/68 60/35/68
f 22/103/69 20/128/69 63/36/69
f 20/109/77 51/2/77 50/8/77
f 19/114/96 3/116/96 56/113/96
f 28/115/97 1/68/97 56/113/97
f 5/118/103 29/83/103 62/82/103
f 22/119/104 64/104/104 66/79/104
f 11/123/110 70/74/110 69/122/110
f 23/125/111 24/124/111 69/122/111
