# Blender v2.77 (sub 0) OBJ File: 'cactus2.blend'
# www.blender.org
o Cylinder.001
v 0.000000 -0.175668 0.000000
v 0.000000 -0.175668 -0.141256
v 0.000000 0.725465 -0.177785
v 0.122332 -0.175668 -0.070628
v 0.153967 0.725465 -0.088893
v 0.122332 -0.175668 0.070628
v 0.153967 0.725465 0.088893
v -0.000000 -0.175668 0.141256
v -0.000000 0.725465 0.177785
v -0.122332 -0.175668 0.070628
v -0.153967 0.725465 0.088893
v -0.122332 -0.175668 -0.070628
v -0.153967 0.725465 -0.088893
v 0.000000 1.494194 -0.177785
v 0.153967 1.494194 -0.088893
v 0.153967 1.494194 0.088893
v -0.000000 1.494194 0.177785
v -0.153967 1.494194 0.088893
v -0.153967 1.494194 -0.088893
v 0.000000 1.711655 0.000000
v 0.000000 1.711655 -0.070011
v 0.060631 1.711655 -0.035005
v 0.060631 1.711655 0.035005
v -0.000000 1.711655 0.070011
v -0.060631 1.711655 0.035005
v -0.060631 1.711655 -0.035005
v 0.153967 0.864004 -0.049368
v 0.153966 0.864004 0.034280
v 0.153967 0.953308 0.062162
v 0.153967 1.034845 0.031492
v 0.153967 1.034844 -0.041003
v 0.153966 0.949424 -0.077250
v 0.409395 0.907377 -0.061296
v 0.409395 0.907377 0.045689
v 0.383321 1.015672 0.081351
v 0.359515 1.114547 0.042123
v 0.359515 1.114547 -0.050597
v 0.384455 1.010962 -0.096957
v 0.651980 1.185897 -0.061296
v 0.651980 1.185897 0.045689
v 0.559757 1.217100 0.081351
v 0.475555 1.245590 0.042123
v 0.475556 1.245590 -0.050597
v 0.563768 1.215743 -0.096957
v 0.627089 1.374746 -0.027694
v 0.627089 1.374746 0.013548
v 0.591537 1.386775 0.027295
v 0.559078 1.397758 0.012173
v 0.559078 1.397758 -0.023570
v 0.593083 1.386252 -0.041441
v -0.153967 1.333064 -0.034433
v -0.153967 1.333065 0.032729
v -0.153967 1.256546 0.066309
v -0.153967 1.171522 0.032729
v -0.153967 1.171522 -0.032906
v -0.153967 1.252293 -0.068013
v -0.426287 1.402213 -0.045991
v -0.426287 1.402213 0.044112
v -0.437634 1.300781 0.089164
v -0.450243 1.188073 0.044112
v -0.450243 1.188073 -0.043943
v -0.438265 1.295143 -0.091042
v -0.531482 1.549647 -0.045991
v -0.531482 1.549647 0.044112
v -0.597158 1.503022 0.089164
v -0.670134 1.451213 0.044112
v -0.670134 1.451213 -0.043943
v -0.600808 1.500430 -0.091042
v -0.630647 1.613729 -0.012390
v -0.630647 1.613729 0.011017
v -0.647709 1.601617 0.022720
v -0.666666 1.588158 0.011017
v -0.666666 1.588158 -0.011858
v -0.648657 1.600944 -0.024094
vt 0.2151 0.7945
vt 0.2828 0.8334
vt 0.2151 0.8724
vt 0.2748 0.3736
vt 0.0523 0.6020
vt 0.1872 0.3299
vt 0.5652 0.3436
vt 0.6054 0.0000
vt 0.6472 0.0009
vt 0.1475 0.8334
vt 0.3102 0.3975
vt 0.4222 0.0504
vt 0.4503 0.0694
vt 0.1475 0.7556
vt 0.6613 0.3640
vt 0.6549 0.5488
vt 0.6389 0.5417
vt 0.3526 0.0157
vt 0.2151 0.7167
vt 0.0000 0.5823
vt 0.1349 0.3101
vt 0.3110 0.0000
vt 0.2828 0.7556
vt 0.4503 0.6381
vt 0.5126 0.3424
vt 0.7048 0.3834
vt 0.7236 0.0172
vt 0.7581 0.0325
vt 0.5029 0.6393
vt 0.1475 0.8015
vt 0.0685 0.7690
vt 0.0983 0.7167
vt 0.1400 0.6457
vt 0.0356 0.6935
vt 0.0000 0.8864
vt 0.0685 0.8359
vt 0.0983 0.8864
vt 0.0298 0.7690
vt 0.0000 0.7167
vt 0.0150 0.6857
vt 0.5990 0.6597
vt 0.5116 0.7346
vt 0.0492 0.8024
vt 0.0879 0.8024
vt 0.0104 0.8024
vt 0.0298 0.8359
vt 0.2402 0.4578
vt 0.1753 0.6697
vt 0.2686 0.4752
vt 0.9663 0.0258
vt 0.8843 0.1139
vt 0.9459 0.0000
vt 0.4419 0.8630
vt 0.3907 0.7996
vt 0.4419 0.7996
vt 0.2320 0.4908
vt 0.3297 0.5246
vt 0.3093 0.5600
vt 0.3965 0.9760
vt 0.4366 0.9760
vt 0.3354 0.7167
vt 0.2828 0.8576
vt 0.2891 0.7167
vt 1.0000 0.0409
vt 0.9157 0.1356
vt 0.3676 0.4965
vt 0.4072 0.7543
vt 0.4270 0.7543
vt 0.9642 0.1437
vt 0.9276 0.2574
vt 0.3420 0.8576
vt 0.2828 0.9924
vt 0.9009 0.2789
vt 0.4290 0.6451
vt 0.3745 0.6323
vt 0.3391 0.6303
vt 0.4369 0.7355
vt 0.3989 0.7363
vt 0.9714 0.2221
vt 0.9831 0.3019
vt 0.3992 0.7167
vt 0.3910 0.7111
vt 0.9728 0.3102
vt 0.3700 0.7062
vt 0.3563 0.7054
vt 0.6418 0.6110
vt 0.6425 0.6791
vt 0.6237 0.5690
vt 0.7779 0.5677
vt 0.7519 0.6029
vt 0.7485 0.6481
vt 0.8138 0.6932
vt 0.7874 0.7122
vt 0.9655 0.3314
vt 0.8843 0.4503
vt 0.9395 0.3102
vt 0.9830 0.6150
vt 0.9210 0.7588
vt 0.9461 0.6104
vt 0.6254 0.6037
vt 0.3844 0.7167
vt 0.3420 0.8799
vt 0.3481 0.7167
vt 0.9973 0.3378
vt 0.9212 0.4728
vt 0.8579 0.7402
vt 0.8451 0.7425
vt 0.3907 0.8799
vt 0.3420 1.0000
vt 0.9657 0.4759
vt 0.9614 0.5799
vt 0.8628 0.6843
vt 0.9342 0.5953
vt 0.9630 0.8231
vt 0.9136 0.8169
vt 0.9377 0.8753
vt 0.9429 0.8859
vt 0.9172 0.8822
vt 0.9882 0.6104
vt 0.9248 0.8737
vt 0.8635 0.7427
vt 0.8843 0.8495
vt 0.6563 0.5852
vt 0.0701 0.7107
vt 0.5495 0.7427
vt 0.2614 0.4300
vt 0.2780 0.4412
vt 0.2464 0.5006
vt 0.3907 0.8630
vt 0.3420 0.9924
vt 0.4065 0.7167
vt 0.4293 0.7167
vt 1.0000 0.2883
vt 0.4503 0.6595
vt 0.9704 0.7650
vt 0.3907 1.0000
vt 0.9973 0.5489
vt 0.9224 0.8933
vt 0.9349 0.8948
vt 0.9953 0.6064
vt 0.9830 0.8639
vt 0.8843 0.6939
vn 0.0000 -1.0000 0.0000
vn 0.5000 0.0000 0.8660
vn 0.4997 -0.0351 -0.8655
vn 0.9994 -0.0351 0.0000
vn -1.0000 0.0000 -0.0000
vn 0.4997 -0.0351 0.8655
vn -0.5000 0.0000 0.8660
vn -0.4997 -0.0351 0.8655
vn 0.5000 0.0000 -0.8660
vn -0.9994 -0.0351 0.0000
vn -0.5000 0.0000 -0.8660
vn -0.4997 -0.0351 -0.8655
vn 0.4595 0.3944 -0.7958
vn 0.4595 0.3944 0.7958
vn -0.9189 0.3944 0.0000
vn 0.9189 0.3944 0.0000
vn -0.4595 0.3944 0.7958
vn -0.4595 0.3944 -0.7958
vn 0.0000 1.0000 0.0000
vn 1.0000 0.0000 0.0000
vn 0.0083 -0.3103 -0.9506
vn -0.7487 0.6630 -0.0000
vn -0.1746 0.3265 0.9289
vn -0.3615 0.9324 -0.0000
vn 0.1674 -0.9859 0.0000
vn -0.1800 0.3842 -0.9055
vn 0.0052 -0.3116 0.9502
vn -0.8766 0.4812 -0.0000
vn -0.3538 0.3098 -0.8825
vn 0.7541 -0.6568 0.0000
vn 0.2865 -0.2495 -0.9250
vn 0.2773 -0.2429 0.9296
vn -0.3233 0.2863 0.9019
vn 0.3205 0.9472 0.0000
vn -0.3432 0.3436 -0.8742
vn 0.9914 0.1307 0.0000
vn 0.4272 0.2127 -0.8788
vn 0.4127 0.2054 0.8874
vn -0.3001 0.3401 0.8912
vn 0.0132 -0.4039 -0.9147
vn 0.3811 0.2719 -0.8836
vn 0.0152 -0.3673 0.9300
vn 0.2461 0.9692 -0.0000
vn 0.1334 0.3717 -0.9187
vn -0.0558 -0.9984 -0.0000
vn 0.1352 0.3982 0.9073
vn -0.6406 0.1905 -0.7439
vn -0.7673 -0.6412 -0.0000
vn 0.4176 0.3294 0.8468
vn -0.3803 -0.3011 -0.8745
vn -0.3697 -0.3089 0.8763
vn 0.8140 0.5808 -0.0000
vn -0.5789 0.8154 0.0000
vn -0.6136 0.2001 0.7638
vn 0.5428 0.8399 -0.0000
vn 0.1063 0.5858 -0.8035
vn -0.9997 0.0253 0.0000
vn 0.1207 0.5966 0.7934
vn 0.0057 -0.3243 -0.9459
vn -0.1715 0.3469 0.9221
vn -0.1839 0.3643 -0.9129
vn 0.0080 -0.2980 0.9545
vn -0.3558 0.3151 -0.8799
vn 0.2881 -0.2523 -0.9238
vn 0.2757 -0.2401 0.9308
vn -0.3213 0.2814 0.9042
vn 0.3205 0.9473 0.0000
vn 0.0119 -0.3986 -0.9171
vn 0.4003 0.3170 -0.8598
vn 0.0166 -0.3727 0.9278
vn 0.1315 0.3806 -0.9154
vn 0.1369 0.3893 0.9109
vn 0.3974 0.2835 0.8727
vn -0.3972 -0.3319 -0.8556
vn -0.3534 -0.2787 0.8930
s off
f 1/1/1 2/2/1 4/3/1
f 7/4/2 17/5/2 9/6/2
f 3/7/3 4/8/3 2/9/3
f 1/1/1 4/3/1 6/10/1
f 5/11/4 6/12/4 4/13/4
f 1/1/1 6/10/1 8/14/1
f 13/15/5 54/16/5 55/17/5
f 7/4/6 8/18/6 6/12/6
f 1/1/1 8/14/1 10/19/1
f 9/6/7 18/20/7 11/21/7
f 8/18/8 11/21/8 10/22/8
f 1/1/1 10/19/1 12/23/1
f 3/7/9 15/24/9 5/25/9
f 11/26/10 12/27/10 10/28/10
f 1/1/1 12/23/1 2/2/1
f 13/15/11 14/29/11 3/7/11
f 12/27/12 3/7/12 2/9/12
f 14/30/13 22/31/13 15/32/13
f 16/33/14 24/34/14 17/5/14
f 18/35/15 26/36/15 19/37/15
f 15/32/16 23/38/16 16/39/16
f 17/5/17 25/40/17 18/20/17
f 19/41/18 21/42/18 14/29/18
f 20/43/19 22/31/19 21/44/19
f 20/43/19 23/38/19 22/31/19
f 20/43/19 24/45/19 23/38/19
f 20/43/19 25/46/19 24/45/19
f 20/43/19 26/36/19 25/46/19
f 20/43/19 21/44/19 26/36/19
f 7/4/20 29/47/20 16/33/20
f 5/11/20 15/48/20 32/49/20
f 32/50/21 33/51/21 27/52/21
f 37/53/22 42/54/22 43/55/22
f 30/56/23 35/57/23 36/58/23
f 30/59/24 37/53/24 31/60/24
f 27/61/25 34/62/25 28/63/25
f 31/64/26 38/65/26 32/50/26
f 29/47/27 34/66/27 35/57/27
f 43/55/28 48/67/28 49/68/28
f 37/69/29 44/70/29 38/65/29
f 33/71/30 40/72/30 34/62/30
f 38/65/31 39/73/31 33/51/31
f 35/57/32 40/74/32 41/75/32
f 36/58/33 41/75/33 42/76/33
f 50/77/34 49/68/34 47/78/34
f 43/79/35 50/80/35 44/70/35
f 40/74/36 45/81/36 46/82/36
f 44/70/37 45/83/37 39/73/37
f 41/75/38 46/82/38 47/84/38
f 42/76/39 47/84/39 48/85/39
f 19/41/5 52/86/5 18/87/5
f 56/88/40 61/89/40 62/90/40
f 57/91/41 68/92/41 63/93/41
f 53/94/42 60/95/42 54/96/42
f 51/97/43 58/98/43 52/99/43
f 51/100/44 62/90/44 57/91/44
f 54/101/45 61/102/45 55/103/45
f 52/104/46 59/105/46 53/94/46
f 68/92/47 73/106/47 74/107/47
f 60/108/48 67/109/48 61/102/48
f 58/110/49 65/111/49 59/105/49
f 62/90/50 67/112/50 68/92/50
f 59/105/51 66/113/51 60/95/51
f 58/98/52 63/114/52 64/115/52
f 69/116/53 74/117/53 71/118/53
f 65/111/54 72/119/54 66/113/54
f 64/115/55 69/116/55 70/120/55
f 63/114/56 74/117/56 69/116/56
f 67/112/57 72/121/57 73/106/57
f 64/115/58 71/118/58 65/122/58
f 7/4/2 16/33/2 17/5/2
f 3/7/3 5/25/3 4/8/3
f 5/11/4 7/4/4 6/12/4
f 11/26/5 18/87/5 53/123/5
f 11/26/5 53/123/5 54/16/5
f 56/88/5 19/41/5 13/15/5
f 11/26/5 54/16/5 13/15/5
f 55/17/5 56/88/5 13/15/5
f 7/4/6 9/6/6 8/18/6
f 9/6/7 17/5/7 18/20/7
f 8/18/8 9/6/8 11/21/8
f 3/7/9 14/29/9 15/24/9
f 11/26/10 13/15/10 12/27/10
f 13/15/11 19/41/11 14/29/11
f 12/27/12 13/15/12 3/7/12
f 14/30/13 21/44/13 22/31/13
f 16/33/14 23/124/14 24/34/14
f 18/35/15 25/46/15 26/36/15
f 15/32/16 22/31/16 23/38/16
f 17/5/17 24/34/17 25/40/17
f 19/41/18 26/125/18 21/42/18
f 7/4/20 5/11/20 28/126/20
f 5/11/20 27/127/20 28/126/20
f 29/47/20 30/56/20 16/33/20
f 7/4/20 28/126/20 29/47/20
f 15/48/20 16/33/20 30/56/20
f 15/48/20 30/56/20 31/128/20
f 32/49/20 27/127/20 5/11/20
f 15/48/20 31/128/20 32/49/20
f 32/50/59 38/65/59 33/51/59
f 37/53/22 36/129/22 42/54/22
f 30/56/60 29/47/60 35/57/60
f 30/59/24 36/129/24 37/53/24
f 27/61/25 33/71/25 34/62/25
f 31/64/61 37/69/61 38/65/61
f 29/47/62 28/126/62 34/66/62
f 43/55/28 42/54/28 48/67/28
f 37/69/63 43/79/63 44/70/63
f 33/71/30 39/130/30 40/72/30
f 38/65/64 44/70/64 39/73/64
f 35/57/65 34/66/65 40/74/65
f 36/58/66 35/57/66 41/75/66
f 47/78/34 46/131/34 50/77/34
f 45/132/34 50/77/34 46/131/34
f 49/68/67 48/67/67 47/78/67
f 43/79/35 49/133/35 50/80/35
f 40/74/36 39/134/36 45/81/36
f 44/70/37 50/80/37 45/83/37
f 41/75/38 40/74/38 46/82/38
f 42/76/39 41/75/39 47/84/39
f 19/41/5 56/88/5 51/100/5
f 52/86/5 53/123/5 18/87/5
f 19/41/5 51/100/5 52/86/5
f 56/88/68 55/17/68 61/89/68
f 57/91/69 62/90/69 68/92/69
f 53/94/70 59/105/70 60/95/70
f 51/97/43 57/135/43 58/98/43
f 51/100/71 56/88/71 62/90/71
f 54/101/45 60/108/45 61/102/45
f 52/104/72 58/110/72 59/105/72
f 68/92/47 67/112/47 73/106/47
f 60/108/48 66/136/48 67/109/48
f 58/110/73 64/137/73 65/111/73
f 62/90/74 61/89/74 67/112/74
f 59/105/75 65/111/75 66/113/75
f 58/98/52 57/135/52 63/114/52
f 72/138/53 71/118/53 73/139/53
f 70/120/53 69/116/53 71/118/53
f 74/117/53 73/139/53 71/118/53
f 65/111/54 71/140/54 72/119/54
f 64/115/55 63/114/55 69/116/55
f 63/114/56 68/141/56 74/117/56
f 67/112/57 66/142/57 72/121/57
f 64/115/58 70/120/58 71/118/58
