# Blender v2.77 (sub 0) OBJ File: 'enemy1.blend'
# www.blender.org
o Icosphere
v 0.000000 -1.000000 0.000000
v 0.723600 -0.447215 0.525720
v -0.276385 -0.447215 0.850640
v -0.894425 -0.447215 0.000000
v -0.276385 -0.447215 -0.850640
v 0.723600 -0.447215 -0.525720
v 0.276385 0.447215 0.850640
v -0.723600 0.447215 0.525720
v -0.723600 0.447215 -0.525720
v 0.276385 0.447215 -0.850640
v 0.894425 0.447215 0.000000
v 0.000000 1.000000 0.000000
v 1.173440 -0.224110 0.000000
v 0.362614 -0.224107 -1.116002
v -0.949330 -0.224106 -0.689730
v -0.949330 -0.224106 0.689730
v 0.362614 -0.224107 1.116002
v -0.725226 0.949338 0.000000
v -0.224110 0.949337 0.689728
v 0.586719 0.949338 0.426278
v 0.586719 0.949338 -0.426278
v -0.224110 0.949337 -0.689728
v -0.586719 -0.949338 0.426278
v -0.586719 -0.949338 -0.426278
v 0.224110 -0.949337 -0.689728
v 0.725226 -0.949338 0.000000
v 0.224110 -0.949337 0.689728
v 0.607320 -0.375349 0.441239
v 0.750694 0.375349 0.000000
v 0.607320 -0.375349 -0.441239
v 0.231971 0.375349 0.713945
v -0.231971 -0.375349 0.713945
v -0.607320 0.375349 0.441239
v -0.750694 -0.375349 0.000000
v -0.607320 0.375349 -0.441239
v -0.231971 -0.375349 -0.713945
v 0.231971 0.375349 -0.713945
vt 0.3988 0.2241
vt 0.2038 0.1142
vt 0.3341 0.1133
vt 0.3988 0.0002
vt 0.5939 0.1142
vt 0.4636 0.1133
vt 0.1186 0.7551
vt 0.2325 0.5528
vt 0.2332 0.6877
vt 0.4651 0.5556
vt 0.3492 0.6211
vt 0.5777 0.7551
vt 0.4640 0.6882
vt 0.5904 0.3400
vt 0.5272 0.2261
vt 0.2073 0.3400
vt 0.2705 0.2261
vt 0.0002 0.5577
vt 0.1167 0.6222
vt 0.3524 0.3535
vt 0.3503 0.4871
vt 0.6935 0.5583
vt 0.5789 0.6229
vt 0.4890 0.8694
vt 0.6556 0.9998
vt 0.4901 0.9042
vt 0.2150 0.5228
vt 0.1306 0.7852
vt 0.0002 0.9517
vt 0.0958 0.7862
vt 0.2324 0.3530
vt 0.3399 0.7556
vt 0.3582 0.7852
vt 0.2444 0.9824
vt 0.2444 0.8509
vt 0.0167 0.9824
vt 0.1306 0.9166
vt 0.6862 0.7556
vt 0.6862 0.9833
vt 0.6205 0.8694
vt 0.8834 0.8694
vt 0.7519 0.8694
vt 0.4721 0.9824
vt 0.3582 0.9166
vt 0.7716 0.3535
vt 0.8493 0.4881
vt 0.6939 0.4881
vt 0.3486 0.7537
vt 0.8756 0.0002
vt 0.9533 0.1348
vt 0.7979 0.1348
vt 0.8290 0.6439
vt 0.8290 0.4886
vt 0.9635 0.5662
vt 0.7979 0.2906
vt 0.7979 0.1353
vt 0.9325 0.2130
vt 0.8285 0.4886
vt 0.8285 0.6439
vt 0.6939 0.5662
vt 0.0039 0.0506
vt 0.0002 0.0163
vt 0.7169 0.9998
vt 0.3881 0.3551
vt 0.4837 0.5263
vt 0.3930 0.7862
vt 0.4886 0.9517
vt 0.3165 0.3540
vt 0.5653 0.3530
vt 0.3988 0.2580
vt 0.7974 0.0163
vt 0.6229 0.1328
vt 0.6200 0.3223
vt 0.6788 0.5336
vt 0.1747 0.1328
vt 0.0184 0.5269
vt 0.1489 0.7556
vt 0.8823 0.9042
vt 0.7938 0.0506
vt 0.1777 0.3223
vn 0.3090 0.0032 0.9511
vn 0.0504 -0.7222 -0.6899
vn -0.8090 0.0032 0.5878
vn -0.8090 0.0032 -0.5878
vn 0.3090 0.0032 -0.9511
vn 0.6685 0.2778 -0.6899
vn 0.8627 0.2778 0.4226
vn -0.1353 0.2778 0.9511
vn -0.9463 0.2778 0.1652
vn -0.4496 0.2778 -0.8489
vn -0.5257 -0.8506 0.0000
vn -0.2629 0.5257 -0.8090
vn -0.1625 -0.8506 0.5000
vn 0.6882 0.5257 -0.5000
vn 0.4253 -0.8506 0.3090
vn 0.4463 0.7222 -0.5285
vn -0.6717 0.7222 -0.1652
vn -0.0504 0.7222 -0.6899
vn 0.6405 0.7222 -0.2612
vn -0.3647 0.7222 -0.5878
vn 0.7946 0.1876 0.5774
vn 0.6685 0.2778 0.6899
vn 0.4443 -0.8959 0.0000
vn 0.8627 0.2778 -0.4226
vn 0.1373 -0.8959 -0.4226
vn -0.1353 0.2778 -0.9511
vn -0.3595 -0.8959 -0.2612
vn -0.9463 0.2778 -0.1652
vn -0.3595 -0.8959 0.2612
vn -0.4496 0.2778 0.8489
vn 0.1373 -0.8959 0.4226
vn -0.0504 0.7222 0.6899
vn -1.0000 -0.0032 0.0000
vn 0.6405 0.7222 0.2612
vn -0.3090 -0.0032 0.9511
vn -0.3647 0.7222 0.5878
vn 0.8090 -0.0032 0.5878
vn 0.4463 0.7222 0.5285
vn 0.8090 -0.0032 -0.5878
vn -0.6717 0.7222 0.1652
vn -0.3090 -0.0032 -0.9511
vn -0.4463 -0.7222 -0.5285
vn 0.3647 -0.7222 0.5878
vn 0.3647 -0.7222 -0.5878
vn -0.4463 -0.7222 0.5285
vn -0.6405 -0.7222 -0.2612
vn 0.6717 -0.7222 0.1652
vn 1.0000 0.0032 0.0000
vn 0.0504 -0.7222 0.6899
vn 0.6717 -0.7222 -0.1652
vn -0.6405 -0.7222 0.2612
vn -0.3035 0.1876 0.9342
vn -0.9822 0.1876 0.0000
vn -0.3035 0.1876 -0.9342
vn 0.7946 0.1876 -0.5774
vn 0.6882 0.5257 0.5000
vn -0.1625 -0.8506 -0.5000
vn 0.4253 -0.8506 -0.3090
vn -0.2629 0.5257 0.8090
vn -0.8507 0.5257 0.0000
s off
f 2/1/1 3/2/1 27/3/1
f 1/4/2 6/5/2 26/6/2
f 3/7/3 4/8/3 23/9/3
f 4/8/4 5/10/4 24/11/4
f 5/10/5 6/12/5 25/13/5
f 6/5/6 11/14/6 13/15/6
f 2/1/7 7/16/7 17/17/7
f 3/7/8 8/18/8 16/19/8
f 4/8/9 9/20/9 15/21/9
f 5/10/10 10/22/10 14/23/10
f 8/24/11 35/25/11 33/26/11
f 8/18/12 34/27/12 4/8/12
f 7/28/13 33/29/13 31/30/13
f 2/1/14 31/31/14 7/16/14
f 7/28/15 29/32/15 11/33/15
f 11/33/16 12/34/16 20/35/16
f 12/34/17 8/36/17 19/37/17
f 12/38/18 9/39/18 18/40/18
f 12/38/19 10/41/19 22/42/19
f 10/43/20 12/34/20 21/44/20
f 28/45/21 29/46/21 31/47/21
f 11/14/22 2/1/22 13/15/22
f 2/1/23 6/5/23 13/15/23
f 10/22/24 6/12/24 14/23/24
f 6/12/25 5/10/25 14/23/25
f 9/20/26 5/10/26 15/21/26
f 5/10/27 4/8/27 15/21/27
f 8/18/28 4/8/28 16/19/28
f 4/8/29 3/7/29 16/19/29
f 7/16/30 3/2/30 17/17/30
f 3/2/31 2/1/31 17/17/31
f 8/24/32 12/38/32 18/40/32
f 9/39/33 8/24/33 18/40/33
f 7/28/34 12/34/34 19/37/34
f 8/36/35 7/28/35 19/37/35
f 12/34/36 7/28/36 20/35/36
f 7/28/37 11/33/37 20/35/37
f 12/34/38 11/33/38 21/44/38
f 11/33/39 10/43/39 21/44/39
f 9/39/40 12/38/40 22/42/40
f 10/41/41 9/39/41 22/42/41
f 4/8/42 1/48/42 23/9/42
f 1/48/43 3/7/43 23/9/43
f 5/10/44 1/48/44 24/11/44
f 1/48/45 4/8/45 24/11/45
f 1/48/46 5/10/46 25/13/46
f 6/12/47 1/48/47 25/13/47
f 6/5/48 2/1/48 26/6/48
f 2/1/49 1/4/49 26/6/49
f 1/4/50 2/1/50 27/3/50
f 3/2/51 1/4/51 27/3/51
f 32/49/52 31/50/52 33/51/52
f 34/52/53 33/53/53 35/54/53
f 36/55/54 35/56/54 37/57/54
f 30/58/55 37/59/55 29/60/55
f 3/2/56 33/61/56 8/62/56
f 10/41/57 35/63/57 9/39/57
f 5/10/14 35/64/14 36/65/14
f 10/43/58 29/66/58 37/67/58
f 9/20/59 34/27/59 35/68/59
f 2/1/59 29/69/59 28/70/59
f 10/71/56 30/72/56 6/5/56
f 6/5/12 29/73/12 11/14/12
f 10/22/60 36/65/60 37/74/60
f 7/16/60 32/75/60 3/2/60
f 8/24/11 9/39/11 35/25/11
f 8/18/12 33/76/12 34/27/12
f 7/28/13 8/36/13 33/29/13
f 2/1/14 28/70/14 31/31/14
f 7/28/15 31/77/15 29/32/15
f 3/2/56 32/75/56 33/61/56
f 10/41/57 37/78/57 35/63/57
f 5/10/14 9/20/14 35/64/14
f 10/43/58 11/33/58 29/66/58
f 9/20/59 4/8/59 34/27/59
f 2/1/59 11/14/59 29/69/59
f 10/71/56 37/79/56 30/72/56
f 6/5/12 30/72/12 29/73/12
f 10/22/60 5/10/60 36/65/60
f 7/16/60 31/80/60 32/75/60
